<svg xmlns="http://www.w3.org/2000/svg" width="500" height="166" viewBox="-2.658 -4.998 500 166"><path id="claim_1_" fill="#274AB0" d="M492.822 143.377h-6.894v6.894h6.894v-6.894zm-1.448-2.027l2.173-20.941h-8.373l2.183 20.941h4.017zm-24.906 8.858c.277.038.81.063 1.619.063l1.312-.024c3.253 0 5.251.154 5.997.463.756.301 1.127.739 1.127 1.312 0 .74-.447 1.278-1.342 1.618-.894.331-2.46.51-4.695.51-1.704 0-3.192-.132-4.464-.378-1.266-.248-1.897-.864-1.897-1.859 0-.501.192-.917.594-1.271.409-.347.74-.523.995-.523.192-.003.447.027.754.089m6.407-17.974c.626.664.941 1.427.941 2.307 0 .933-.331 1.726-.995 2.383-.661.655-1.58.986-2.735.986-2.407 0-3.602-1.125-3.602-3.369 0-.994.315-1.797.948-2.392.64-.607 1.511-.909 2.629-.909 1.249 0 2.19.332 2.814.994m9.886-7.686a8.86 8.86 0 0 0-1.836-.177c-1.966 0-3.254.4-3.863 1.209-.608.812-.971 1.844-1.103 3.094a17.977 17.977 0 0 0-5.845-.966c-3.177 0-5.667.648-7.471 1.929-1.797 1.288-2.698 2.953-2.698 5.005 0 2.521 1.304 4.316 3.917 5.404-2.946 1.172-4.426 2.821-4.426 4.942 0 1.688.932 3.007 2.807 3.938-2.529.687-3.795 2.014-3.795 3.987 0 1.48.787 2.714 2.354 3.687 1.556.97 4.571 1.457 9.051 1.457 4.772 0 8.096-.702 9.962-2.099 1.873-1.401 2.814-3.114 2.814-5.149 0-1.411-.432-2.582-1.311-3.532a5.887 5.887 0 0 0-3.238-1.804c-1.288-.246-3.623-.454-7.025-.633-2.396-.116-3.9-.3-4.526-.538-.63-.255-.938-.765-.938-1.521 0-.686.369-1.249 1.108-1.681 1.111.224 2.244.333 3.416.333 3.285 0 5.791-.626 7.541-1.866 1.743-1.243 2.613-2.899 2.613-4.982 0-1.564-.593-2.96-1.779-4.209.253-1.28 1.102-1.92 2.544-1.92.462 0 1.041.078 1.728.217v-4.125zm-33.972 3.632v12.398c0 1.311-.085 2.235-.255 2.783-.161.532-.555 1.041-1.163 1.511-.616.479-1.334.709-2.175.709-1.636 0-2.444-.986-2.444-2.976V128.18h-6.33v14.426c0 2.036.2 3.577.585 4.656.387 1.073 1.02 1.913 1.913 2.537.895.617 2.166.926 3.832.926 3.2 0 5.382-1.404 6.516-4.218v3.764h6.037V128.18h-6.516zm-17.726-7.772h-6.522v29.862h6.522v-29.862zm-9.799 0H400.03v29.862h7.255v-11.682h11.049v-5.583h-11.049v-6.692h13.979v-5.905zm-38.137 15.666c0-3.308-.64-5.536-1.911-6.669-1.288-1.125-2.978-1.697-5.081-1.697-1.134 0-2.19.264-3.17.765-.979.517-1.967 1.665-2.983 3.438v-3.73h-6.053v22.091h6.516v-12.407c0-3.376 1.142-5.072 3.431-5.072.687 0 1.256.192 1.719.577.447.394.733.855.85 1.412.107.555.177 1.58.177 3.083v12.407h6.507v-14.198zm-33.439-4.095c2.291 0 3.539 1.521 3.74 4.551h-7.857c.293-3.03 1.666-4.551 4.117-4.551m7.07-1.262c-2.027-2.005-4.464-3.009-7.316-3.009-3.153 0-5.722 1.08-7.727 3.248-2.012 2.159-3.014 4.988-3.014 8.503 0 2.367.501 4.388 1.503 6.084.994 1.696 2.267 2.977 3.809 3.862 1.535.881 3.408 1.319 5.613 1.319 5.042 0 8.389-2.553 10.031-7.649l-5.906-.438c-.431 2.32-1.743 3.477-3.916 3.477-1.164 0-2.168-.4-3.008-1.21-.832-.793-1.257-1.989-1.257-3.554 0-.293.007-.642.022-1.042h14.228c.001-4.387-1.026-7.586-3.062-9.591m-20.216 2.528v-5.065h-4.758v-6.963l-5.62.44-.516 6.522h-3.88v5.065h3.509v10.286c0 2.729.563 4.611 1.703 5.65 1.134 1.049 3.063 1.566 5.769 1.566.841 0 2.197-.154 4.093-.478v-4.835c-.786.054-1.473.085-2.074.085-1.278 0-2.104-.192-2.451-.595-.354-.393-.532-1.171-.532-2.336v-9.345h4.757zm-20.333-4.155c-1.395-.91-3.261-1.382-5.597-1.382-2.946 0-5.235.687-6.869 2.06-1.636 1.381-2.445 3.108-2.445 5.205 0 2.081.702 3.686 2.105 4.851 1.403 1.155 4.341 2.012 8.813 2.566 1.641.185 2.466.786 2.466 1.813 0 .654-.378 1.187-1.118 1.573-.739.385-1.649.577-2.729.577-2.821 0-4.457-.986-4.904-2.976l-5.489.81c1.088 4.356 4.456 6.538 10.085 6.538 3.106 0 5.527-.709 7.255-2.136 1.72-1.435 2.591-3.285 2.591-5.559 0-1.52-.355-2.8-1.063-3.833-.709-1.033-1.666-1.766-2.877-2.213-1.209-.432-3.083-.816-5.597-1.148-1.688-.224-2.745-.485-3.146-.803-.402-.315-.602-.731-.602-1.256 0-1.326 1.103-1.989 3.284-1.989 2.313 0 3.755.994 4.31 2.992l4.75-1.265c-.739-2.027-1.818-3.509-3.223-4.425m-32.328 21.118c.277.038.816.063 1.619.063l1.312-.024c3.252 0 5.258.154 6.006.463.747.301 1.125.739 1.125 1.312 0 .74-.447 1.278-1.349 1.618-.887.331-2.452.51-4.688.51-1.704 0-3.199-.132-4.464-.378-1.266-.248-1.896-.864-1.896-1.859 0-.501.192-.917.593-1.271.409-.347.74-.523.995-.523.192-.003.439.027.747.089m6.407-17.974c.633.664.941 1.427.941 2.307 0 .933-.331 1.726-.995 2.383-.654.655-1.573.986-2.729.986-2.405 0-3.602-1.125-3.602-3.369 0-.994.317-1.797.948-2.392.633-.607 1.504-.909 2.631-.909 1.241 0 2.183.332 2.806.994m9.884-7.686a8.717 8.717 0 0 0-1.826-.177c-1.975 0-3.262.4-3.863 1.209-.609.812-.979 1.844-1.104 3.094a18.014 18.014 0 0 0-5.843-.966c-3.186 0-5.669.648-7.473 1.929-1.797 1.288-2.706 2.953-2.706 5.005 0 2.521 1.312 4.316 3.918 5.404-2.946 1.172-4.419 2.821-4.419 4.942 0 1.688.934 3.007 2.798 3.938-2.521.687-3.784 2.014-3.784 3.987 0 1.48.787 2.714 2.352 3.687 1.549.97 4.571 1.457 9.051 1.457 4.773 0 8.089-.702 9.962-2.099 1.873-1.401 2.814-3.114 2.814-5.149 0-1.411-.438-2.582-1.311-3.532a5.873 5.873 0 0 0-3.238-1.804c-1.288-.246-3.632-.454-7.023-.633-2.398-.116-3.902-.3-4.526-.538-.632-.255-.949-.765-.949-1.521 0-.686.371-1.249 1.119-1.681a17.17 17.17 0 0 0 3.416.333c3.283 0 5.789-.626 7.532-1.866 1.743-1.243 2.622-2.899 2.622-4.982 0-1.564-.595-2.96-1.781-4.209.255-1.28 1.102-1.92 2.544-1.92.462 0 1.041.078 1.719.217v-4.125zm-33.948 1.765h6.524v-6.522h-6.524v6.522zm0 23.958h6.524v-22.1h-6.524v22.1zm-5.358-29.863h-6.522v29.862h6.522v-29.862zm-11.877 0h-6.519v29.862h6.519v-29.862zm-18.405 5.905h6.522v-6.522h-6.522v6.522zm0 23.958h6.522v-22.1h-6.522v22.1zm-17.865-12.978c0-1.665.309-2.946.941-3.847.62-.903 1.464-1.357 2.533-1.357.925 0 1.747.4 2.462 1.203.718.809 1.083 2.775 1.083 5.905 0 2.754-.35 4.611-1.052 5.567-.702.955-1.587 1.434-2.667 1.434-.903 0-1.681-.394-2.329-1.179-.648-.795-.972-1.951-.972-3.502v-4.224zm-6.523-16.885v29.862h3.481c.554-1.844 1.045-2.969 1.454-3.394.948 1.55 1.889 2.575 2.818 3.085.932.508 2.14.763 3.632.763 2.852 0 5.038-1.056 6.554-3.17 1.515-2.112 2.273-4.889 2.273-8.333 0-3.578-.731-6.386-2.208-8.429-1.47-2.059-3.475-3.085-6.019-3.085-2.479 0-4.302 1.08-5.463 3.248v-10.548h-6.522zm-16.581 15.666c0-3.308-.646-5.536-1.924-6.669-1.287-1.125-2.975-1.697-5.077-1.697a6.865 6.865 0 0 0-3.173.765c-.97.517-1.965 1.665-2.979 3.438v-3.73h-6.053v22.091h6.519v-12.407c0-3.376 1.144-5.072 3.435-5.072.679 0 1.256.192 1.708.577.447.394.731.855.851 1.412.116.555.173 1.58.173 3.083v12.407h6.519v-14.198zm-33.451-4.095c2.291 0 3.54 1.521 3.745 4.551h-7.858c.293-3.03 1.666-4.551 4.113-4.551m7.075-1.262c-2.029-2.005-4.469-3.009-7.309-3.009-3.154 0-5.734 1.08-7.737 3.248-2.01 2.159-3.012 4.988-3.012 8.503 0 2.367.498 4.388 1.499 6.084.995 1.696 2.269 2.977 3.809 3.862 1.539.881 3.408 1.319 5.614 1.319 5.042 0 8.392-2.553 10.042-7.649l-5.915-.438c-.435 2.32-1.738 3.477-3.907 3.477-1.17 0-2.171-.4-3.008-1.21-.844-.793-1.265-1.989-1.265-3.554 0-.293.009-.642.024-1.042h14.221c0-4.387-1.022-7.586-3.056-9.591m-28.493 10.841c0 1.464-.34 2.582-1.019 3.368-.681.794-1.468 1.188-2.377 1.188-2.36 0-3.535-2.182-3.535-6.545 0-4.897 1.253-7.35 3.774-7.35 2.104 0 3.157 1.736 3.157 5.213v4.126zm0-21.15v10.085c-1.273-1.851-3.081-2.785-5.433-2.785-2.668 0-4.715 1.042-6.119 3.125-1.414 2.081-2.116 4.957-2.116 8.626 0 3.531.702 6.292 2.109 8.281 1.411 1.989 3.337 2.984 5.779 2.984 2.563 0 4.603-1.304 6.088-3.917v3.463h6.013v-29.862h-6.321zm-37.908 11.571c2.289 0 3.539 1.521 3.736 4.551h-7.85c.293-3.03 1.658-4.551 4.114-4.551m7.073-1.262c-2.036-2.005-4.476-3.009-7.316-3.009-3.15 0-5.726 1.08-7.73 3.248-2.005 2.159-3.006 4.988-3.006 8.503 0 2.367.498 4.388 1.492 6.084 1.001 1.696 2.27 2.977 3.812 3.862 1.53.881 3.403 1.319 5.606 1.319 5.046 0 8.392-2.553 10.042-7.649l-5.906-.438c-.437 2.32-1.747 3.477-3.917 3.477-1.169 0-2.171-.4-3.008-1.21-.837-.793-1.256-1.989-1.256-3.554 0-.293.007-.642.016-1.042h14.228c0-4.387-1.017-7.586-3.057-9.591m-28.493 10.841c0 1.464-.34 2.582-1.017 3.368-.679.794-1.477 1.188-2.386 1.188-2.352 0-3.528-2.182-3.528-6.545 0-4.897 1.256-7.35 3.774-7.35 2.109 0 3.157 1.736 3.157 5.213v4.126zm0-21.15v10.085c-1.272-1.851-3.079-2.785-5.433-2.785-2.675 0-4.713 1.042-6.125 3.125-1.414 2.081-2.116 4.957-2.116 8.626 0 3.531.702 6.292 2.116 8.281 1.412 1.989 3.333 2.984 5.772 2.984 2.575 0 4.603-1.304 6.095-3.917v3.463h6.018v-29.862h-6.327zM57.57 136.074c0-3.308-.641-5.536-1.929-6.669-1.28-1.125-2.976-1.697-5.077-1.697a6.827 6.827 0 0 0-3.166.765c-.979.517-1.974 1.665-2.976 3.438v-3.73h-6.064v22.091h6.519v-12.407c0-3.376 1.146-5.072 3.436-5.072.689 0 1.256.192 1.708.577.447.394.732.855.852 1.412.12.555.174 1.58.174 3.083v12.407h6.523v-14.198zm-31.085-9.761h6.519v-6.522h-6.519v6.522zm0 23.958h6.519v-22.1h-6.519v22.1zM23.2 120.408H1.962v29.862h7.255v-11.682H20.27v-5.583H9.218v-6.692H23.2v-5.905z"/><linearGradient id="bg_2_" gradientUnits="userSpaceOnUse" x1="465.533" y1="74.778" x2="465.533" y2="16.003"><stop offset="0" stop-color="#ff6f20"/><stop offset=".995" stop-color="#f8aa2a"/></linearGradient><path id="bg_1_" fill="url(#bg_2_)" d="M436.153 45.391c0 16.233 13.152 29.387 29.384 29.387 16.229 0 29.375-13.154 29.375-29.387 0-16.227-13.146-29.388-29.375-29.388-16.232 0-29.384 13.162-29.384 29.388"/><path id="plane_1_" fill="#FFF" d="M465.134 47.618l-13.994-.227-3.146 8.1-5.474.56 2.552-9.118s.624-.088-2.229 0c-2.69.085-2.013-1.521 0-1.83 2.02-.308 2.229-.301 2.229-.301l-2.552-7.644 5.474.819 3.146 5.915 14.441-.844-9.491-21.028 5.197 1.974 16.153 18.508s11.865-.246 13.785.402c1.929.655 2.898 1.754 0 2.868-2.884 1.114-13.785 1.901-13.785 1.901l-18.968 20.07-5.382 1.241 12.044-21.366z"/><path id="text_1_" fill="#274AB0" d="M408.202 35.152c-.092-.749-.315-1.612-.655-2.572-.347-.963-.802-1.816-1.395-2.552a8.393 8.393 0 0 0-2.045-1.839c-.785-.49-1.681-.859-2.714-1.123a13.236 13.236 0 0 0-3.292-.394c-1.364 0-2.691.213-3.971.641a11.858 11.858 0 0 0-3.531 1.861c-1.079.814-1.942 1.728-2.613 2.741-.663 1.017-1.164 1.989-1.488 2.918-.324.934-.655 2.182-.979 3.743l22.831.055c-.001-1.568-.055-2.727-.148-3.479m12.684 9.135l-35.754.054a60.895 60.895 0 0 0-.092 2.899c0 2.202.369 4.214 1.117 6.053a12.325 12.325 0 0 0 3.271 4.677c1.426 1.281 3.138 2.225 5.118 2.833 1.982.61 3.932.91 5.853.91 2.243 0 4.68-.246 7.293-.744 2.622-.49 5.729-1.327 9.339-2.502-.425 1.936-1.026 5.408-1.813 10.428-3.501.759-6.461 1.265-8.867 1.527a68.181 68.181 0 0 1-7.271.393c-4.263 0-8.071-.428-11.434-1.28-3.37-.853-6.322-2.414-8.851-4.696-2.537-2.273-4.41-5.068-5.613-8.376-1.204-3.308-1.806-6.793-1.806-10.432 0-4.025.695-7.935 2.105-11.725 1.389-3.781 3.355-6.876 5.867-9.29 2.521-2.41 5.398-4.114 8.612-5.108 3.217-1.006 6.585-1.503 10.095-1.503 3.314 0 6.476.42 9.468 1.249 2.984.837 5.497 2.202 7.533 4.106 2.027 1.899 3.592 4.182 4.68 6.854 1.094 2.669 1.635 5.637 1.635 8.914a24.543 24.543 0 0 1-.485 4.759m-77.258-16.683c-2.575 0-5.026.366-7.371 1.09-2.345.717-4.41 1.951-6.214 3.686-1.805 1.738-3.201 3.972-4.171 6.695-.981 2.726-1.467 5.348-1.467 7.873 0 2.526.447 4.838 1.335 6.94.902 2.1 2.289 3.759 4.18 4.973 1.88 1.21 4.008 1.816 6.391 1.816 1.781 0 3.408-.317 4.865-.953 1.474-.64 2.799-1.627 4.01-2.953 1.194-1.334 2.213-3.05 3.045-5.15.825-2.097 1.419-4.885 1.772-8.363.232-2.563.449-7.451.642-14.668-2.43-.655-4.772-.986-7.017-.986m20.024 8.88c-.633 14.365-.948 25.411-.948 33.155a243.96 243.96 0 0 0-6.299-.104c-1.627 0-3.871.031-6.732.104l.432-8.566c-1.433 1.87-2.66 3.315-3.686 4.333-1.024 1.01-2.289 1.959-3.8 2.826a18.328 18.328 0 0 1-4.904 1.942c-1.75.428-3.569.641-5.458.641-3.123 0-6.046-.575-8.775-1.719-2.736-1.146-5.059-2.766-6.979-4.851-1.911-2.086-3.33-4.564-4.24-7.429a29.592 29.592 0 0 1-1.372-8.986c0-4.296.817-8.486 2.444-12.568 1.628-4.089 3.848-7.391 6.677-9.916 2.83-2.528 6.022-4.322 9.601-5.37 3.569-1.048 7.409-1.572 11.495-1.572 2.96 0 6.307.277 10.046.836.232-4.259.363-8.748.363-13.435v-3.35c3.054.074 5.396.104 7.023.104 2.121 0 4.495-.03 7.133-.104-.718 8.34-1.389 19.685-2.021 34.029m-61.004 27.145l-.292 6.01-6.386-.104c-.262 0-2.683.031-7.27.104.13-2.371.309-6.781.539-13.243l7.409.097c.655 0 2.783-.031 6.393-.097a276.47 276.47 0 0 0-.393 7.233m-32.77-28.477c-.107-.749-.322-1.612-.662-2.572a8.719 8.719 0 0 0-1.396-2.552 8.05 8.05 0 0 0-2.043-1.839c-.778-.49-1.681-.859-2.705-1.123a13.248 13.248 0 0 0-3.292-.394 12.53 12.53 0 0 0-3.979.641 11.852 11.852 0 0 0-3.532 1.861c-1.072.814-1.951 1.728-2.614 2.741-.662 1.017-1.16 1.989-1.483 2.918-.332.934-.655 2.182-.979 3.743l22.827.055c-.001-1.568-.048-2.727-.142-3.479m12.676 9.135l-35.749.054a53.846 53.846 0 0 0-.104 2.899c0 2.202.383 4.214 1.123 6.053.752 1.844 1.838 3.396 3.268 4.677 1.432 1.281 3.142 2.225 5.124 2.833 1.981.61 3.933.91 5.853.91 2.244 0 4.673-.246 7.293-.744 2.615-.49 5.737-1.327 9.346-2.502-.432 1.936-1.033 5.408-1.813 10.428-3.515.759-6.469 1.265-8.874 1.527a68.21 68.21 0 0 1-7.271.393c-4.256 0-8.071-.428-11.433-1.28-3.371-.853-6.315-2.414-8.86-4.696-2.532-2.273-4.401-5.068-5.606-8.376-1.197-3.308-1.807-6.793-1.807-10.432 0-4.025.705-7.935 2.102-11.725 1.398-3.781 3.357-6.876 5.883-9.29 2.516-2.41 5.384-4.114 8.604-5.108 3.223-1.006 6.584-1.503 10.101-1.503 3.314 0 6.462.42 9.459 1.249 2.993.837 5.499 2.202 7.542 4.106 2.027 1.899 3.585 4.182 4.68 6.854 1.08 2.669 1.628 5.637 1.628 8.914a24.556 24.556 0 0 1-.489 4.759m-77.838-15.745c-4.233 0-7.73.783-10.494 2.338-2.76 1.564-4.892 3.84-6.384 6.831a20.875 20.875 0 0 0-2.251 9.515c0 2.462.458 4.748 1.364 6.873.918 2.118 2.336 3.721 4.271 4.804 1.936 1.088 4.076 1.624 6.418 1.624 1.658 0 3.208-.258 4.662-.778a11.683 11.683 0 0 0 3.921-2.417c1.168-1.092 2.204-2.433 3.102-4.044.896-1.608 1.523-3.424 1.897-5.448.378-2.019.664-4.552.859-7.586.189-3.038.355-6.646.482-10.825-2.823-.592-5.445-.887-7.847-.887m20.821 7.819l-1.024 19.515-.396 17.665a36.924 36.924 0 0 1-.726 5.779c-.397 1.846-1.01 3.52-1.858 5.012a15.132 15.132 0 0 1-3.219 3.954c-1.294 1.157-2.771 2.074-4.414 2.785-1.643.708-3.67 1.278-6.095 1.741-2.426.456-5.017.694-7.777.694-2.96 0-6.325-.2-10.099-.594s-7.888-1.134-12.341-2.22l-.632-10.673c7.321 2.426 13.66 3.641 19.021 3.641 2.055 0 3.987-.251 5.801-.761 1.825-.513 3.358-1.244 4.589-2.208 1.241-.972 2.197-2.275 2.883-3.933.679-1.65 1.137-3.57 1.365-5.748.219-2.169.404-5.471.536-9.891-1.269 1.738-2.405 3.095-3.416 4.059-1.014.972-2.221 1.838-3.635 2.615-1.413.762-3.062 1.386-4.951 1.87-1.886.473-3.866.709-5.953.709-2.855 0-5.575-.447-8.146-1.35a18.59 18.59 0 0 1-6.847-4.263c-2.005-1.936-3.519-4.365-4.564-7.302a27.276 27.276 0 0 1-1.562-9.183c0-4.557.853-8.875 2.563-12.942 1.708-4.063 4.211-7.413 7.51-10.042 3.301-2.622 6.833-4.422 10.579-5.41 3.758-.986 7.929-1.475 12.513-1.475 2.537 0 5.417.158 8.633.466 3.218.316 7.483.949 12.784 1.897l-1.122 15.593zm-70.633-1.209c-.094-.749-.317-1.612-.655-2.572a8.818 8.818 0 0 0-1.388-2.552 8.495 8.495 0 0 0-2.043-1.839c-.783-.49-1.693-.859-2.71-1.123a13.277 13.277 0 0 0-3.292-.394 12.53 12.53 0 0 0-3.979.641 12.053 12.053 0 0 0-3.54 1.861c-1.071.814-1.939 1.728-2.606 2.741-.67 1.017-1.159 1.989-1.49 2.918-.324.934-.648 2.182-.968 3.743l22.823.055c-.001-1.568-.048-2.727-.152-3.479m12.691 9.135l-35.761.054a58.322 58.322 0 0 0-.092 2.899c0 2.202.369 4.214 1.118 6.053.752 1.844 1.842 3.396 3.268 4.677 1.431 1.281 3.142 2.225 5.124 2.833 1.982.61 3.932.91 5.852.91 2.244 0 4.673-.246 7.293-.744 2.615-.49 5.734-1.327 9.342-2.502-.428 1.936-1.026 5.408-1.809 10.428-3.511.759-6.464 1.265-8.874 1.527-2.409.258-4.83.393-7.271.393-4.256 0-8.068-.428-11.434-1.28-3.37-.853-6.314-2.414-8.856-4.696-2.535-2.273-4.405-5.068-5.609-8.376-1.197-3.308-1.804-6.793-1.804-10.432 0-4.025.702-7.935 2.099-11.725 1.398-3.781 3.356-6.876 5.874-9.29 2.525-2.41 5.393-4.114 8.612-5.108 3.223-1.006 6.585-1.503 10.101-1.503 3.315 0 6.465.42 9.456 1.249 2.993.837 5.505 2.202 7.533 4.106 2.036 1.899 3.594 4.182 4.692 6.854 1.08 2.669 1.624 5.637 1.624 8.914a24.757 24.757 0 0 1-.478 4.759m-56.976-7.104c-.416 7.032-.709 12.846-.866 17.414-.167 4.58-.293 9.596-.399 15.043a270.926 270.926 0 0 0-6.583-.104 219.4 219.4 0 0 0-6.535.104l.085-8.172c-.915 1.376-1.705 2.487-2.391 3.322-.678.837-1.581 1.651-2.686 2.458a14.376 14.376 0 0 1-3.609 1.92c-1.291.473-2.787.866-4.46 1.184-1.672.308-3.45.466-5.335.466-3.639 0-6.815-.528-9.506-1.596-2.698-1.064-4.838-2.685-6.412-4.847-1.581-2.169-2.367-5.266-2.367-9.311V54.04l.787-12.695.745-16.739c.03-1.341.045-3.015.045-5.02 3.088.069 5.505.1 7.255.1 1.857 0 4.098-.031 6.727-.1l-1.625 22.445c-.094 1.738-.175 3.203-.22 4.405a73.111 73.111 0 0 0-.069 2.581c0 2.363.347 4.322 1.048 5.883.693 1.558 1.911 2.749 3.655 3.57 1.738.821 3.592 1.222 5.574 1.222 1.889 0 3.67-.355 5.362-1.08a11.384 11.384 0 0 0 3.925-2.755c1.088-1.176 2.005-2.772 2.753-4.769.547-1.447.97-3.452 1.263-6.008.229-1.801.437-4.902.632-9.302.267-5.313.459-10.706.56-16.191 3.223.069 5.678.1 7.375.1 1.92 0 4.083-.031 6.491-.1-.389 4.693-.791 10.553-1.219 17.596M50.726 20.421L49.03 60.479l-.19 9.16a252 252 0 0 0-6.792-.104c-.613 0-3.111.031-7.467.104.482-5.551 1.072-15.513 1.77-29.9.694-14.383 1.125-26.813 1.284-37.283 3.388.074 5.798.104 7.232.104 1.92 0 4.256-.03 7.027-.104l-1.168 17.965zM26.431 9.349c-1.01 0-1.932.127-2.779.375-.845.243-1.539.581-2.074 1.001-.537.424-.979.988-1.342 1.674-.358.693-.601 1.507-.729 2.44-.134.929-.197 2.013-.197 3.219v1.823h12.437c-.192 2.269-.389 5.483-.585 9.65h-11.7a1703.47 1703.47 0 0 0-1.438 40.109c-2.96-.073-5.312-.104-7.066-.104-1.785 0-4.105.031-6.962.104l.594-8.127L6.045 29.53H0c.093-.988.197-2.59.316-4.8.107-2.22.189-3.828.219-4.851h6.631v-1.965c0-3.513.142-6.196.435-8.053.301-1.847.837-3.37 1.635-4.545.798-1.184 1.916-2.213 3.37-3.08a13.957 13.957 0 0 1 4.753-1.77A29.52 29.52 0 0 1 22.672 0c3.712 0 7.629.524 11.758 1.573.097 3.678.278 6.824.536 9.454-3.119-1.115-5.967-1.678-8.535-1.678"/></svg>