<svg xmlns="http://www.w3.org/2000/svg" viewBox="0 0 497 550" width="497" height="550">
	<defs>
		<clipPath clipPathUnits="userSpaceOnUse" id="cp1">
			<path d="M-1103,596h1600v-900h-1600z" />
		</clipPath>
	</defs>
	<style>
		tspan { white-space:pre }
		.shp0 { fill-opacity: 0.031;fill: #ffffff } 
	</style>
	<g id="Mask by BG" clip-path="url(#cp1)">
		<path id="Fill 4" class="shp0" d="M113.01,351.5c4.14,7.17 13.32,9.63 20.49,5.49c7.18,-4.14 9.63,-13.31 5.49,-20.49c-4.14,-7.18 -13.32,-9.63 -20.49,-5.49c-7.17,4.14 -9.63,13.31 -5.49,20.49zM250,117c-8.28,0 -15,6.71 -15,15c0,8.28 6.71,15 15,15c8.29,0 15,-6.72 15,-15c0,-8.28 -6.71,-15 -15,-15zM384.99,351.5c4.14,-7.17 1.68,-16.35 -5.49,-20.49c-7.18,-4.14 -16.35,-1.68 -20.49,5.49c-4.14,7.17 -1.68,16.35 5.49,20.49c7.18,4.14 16.35,1.68 20.49,-5.49zM1.07,153.18v119.39l-0.07,119.96l76.31,-43.57c-2.33,-18.6 3.6,-35.98 23.96,-47.6c20.35,-11.62 53.01,-5.4 66.44,17.61c13.43,23 2.55,54.09 -17.8,65.71c-20.35,11.63 -38.53,8.02 -53.66,-3.28l-76.27,43.55l210.01,120.01c6.01,3.43 12.58,5.05 19.05,5.04c7.85,-0.01 15.55,-2.42 21.98,-6.94l101.9,-58.18l105.06,-59.91l-76.23,-43.52c-15.12,11.25 -33.25,14.84 -53.59,3.22c-20.34,-11.61 -31.23,-42.7 -17.8,-65.71c13.43,-23.01 46.1,-29.22 66.44,-17.61c20.34,11.61 26.26,28.94 23.97,47.51l76.23,43.53l0,-119.93c0,-0.75 -0.03,-1.49 -0.08,-2.22v-117.58c0.02,-6.84 -1.82,-13.26 -5.06,-18.78c-3.32,-5.7 -8.12,-10.45 -13.88,-13.74l-209.97,-120.07l-0.06,87.18c17.46,7.3 29.71,21.07 29.71,44.32c0,23.25 -21.78,48.1 -48.64,48.1c-26.86,0 -48.65,-24.86 -48.65,-48.1c0,-23.24 12.25,-37.01 29.7,-44.32l0,-87.25c-0.83,0.47 -1.64,0.97 -2.44,1.49l-102.62,58.59c-0.7,0.4 -1.39,0.82 -2.06,1.26l-103.04,58.83c-5.95,3.41 -10.6,8.17 -13.8,13.67c-3.41,5.86 -5.17,12.56 -5.07,19.33z" />
	</g>
</svg>