<svg xmlns="http://www.w3.org/2000/svg" viewBox="0 0 226 350" width="226" height="350">
	<style>
		tspan { white-space:pre }
		.shp0 { fill: #edf2f5 } 
		.shp1 { fill: #34375f } 
		.shp2 { fill: #566de9 } 
		.shp3 { fill: #647af0 } 
		.shp4 { fill: #f6d1bc } 
		.shp5 { fill: #a0afff } 
		.shp6 { fill: #855946 } 
		.shp7 { fill: #556cea } 
		.shp8 { fill: #647af1 } 
		.shp9 { fill: #764d39 } 
	</style>
	<g id="Group">
		<path id="Fill 41" class="shp0" d="M50.66,299c12.93,0 25.84,-2.78 35.66,-8.35c19.66,-11.13 19.55,-29.17 -0.23,-40.3c-9.89,-5.56 -22.83,-8.35 -35.75,-8.35c-12.93,0 -25.83,2.79 -35.66,8.35c-19.65,11.12 -19.55,29.17 0.23,40.3c9.89,5.57 22.83,8.35 35.75,8.35" />
		<path id="Fill 42" class="shp1" d="M40.57,258.37c-5.98,-2.66 -15.61,-3.98 -16.93,0.99c-1.33,4.98 -0.67,7.64 2.99,12.29c3.65,4.65 2.99,7.97 6.97,11.29c3.98,3.32 14.28,4.65 16.6,0.33c2.33,-4.31 -0.66,-9.96 -5.31,-14.94c-4.65,-4.98 -4.31,-9.96 -4.31,-9.96" />
		<path id="Fill 43" class="shp1" d="M73.47,249.69c-7.07,-4.89 -11.66,-1.75 -13.78,-1.05c-2.12,0.7 -3.18,5.24 -2.47,9.44c0.71,4.19 3.18,4.54 6.71,8.39c3.53,3.85 2.47,6.29 7.42,8.74c4.95,2.45 14.84,3.14 15.54,-2.8c0.71,-5.94 -2.12,-9.79 -7.42,-13.63c-5.3,-3.84 -6.01,-9.09 -6.01,-9.09" />
		<path id="Fill 44" class="shp2" d="M77,141.45c-4.87,-1.81 -21.67,1.81 -23,12.25c4.86,14.51 2.43,93.64 6.41,101.35c3.98,5.9 13.71,1.81 14.16,-2.27c1.33,-16.78 2.43,-111.33 2.43,-111.33" />
		<path id="Fill 45" class="shp3" d="M76.97,142.98c1.36,-5 -52.92,-14.99 -54.73,-4.09c-1.81,10.9 -1.36,96.29 -0.45,122.63c9.5,9.09 17.19,1.82 18.09,0c0.91,-1.82 0.91,-58.59 1.81,-68.13c0.91,-9.54 2.72,-20.44 14.93,-26.8c14.47,-8.18 19.92,-22.04 20.35,-23.62" />
		<path id="Fill 46" class="shp4" d="M71.24,64c-16.35,11.26 -9.09,27.24 -5.45,35.54c3.63,8.29 16.35,18.36 19.38,20.14c3.03,1.78 4.85,-4.15 12.72,-7.7c7.87,-3.55 19.99,-14.81 23.02,-14.81c3.03,0 9.08,-1.19 9.69,-5.33c0.6,-4.15 -1.21,-6.52 -1.21,-6.52c0,0 3.63,-2.96 0,-5.33c-3.63,-2.37 -9.69,2.37 -9.69,2.37c0,0 0,0 0,-2.96c0,-2.96 -1.82,-7.7 -4.24,-8.88c-2.43,-1.19 0.6,7.11 -1.21,8.88c-1.82,1.78 0,6.51 0,6.51c0,0 -2.42,5.33 -10.9,7.7c-8.48,2.37 -14.54,7.11 -14.54,7.11c0,0 -1.21,-4.15 -4.84,-18.95c-3.63,-14.81 -12.72,-17.77 -12.72,-17.77" />
		<path id="Fill 47" class="shp5" d="M39.58,54c0,0 -21.45,14.36 -23.68,19.3c-2.23,4.94 -3.13,18.85 0.9,28.27c4.02,9.42 1.34,43.53 2.68,50.26c1.34,6.73 19.21,9.42 30.38,7.63c11.17,-1.8 28.15,-9.42 28.15,-22.44c0,-13.01 -2.23,-37.24 -1.34,-43.08c0.9,-5.83 0.78,-16.75 -1.69,-26.68c-1.12,-4.49 -7.5,-7.53 -7.5,-7.53c0,0 -6.6,-3.62 -27.89,-5.73" />
		<path id="Fill 48" class="shp4" d="M26.23,100.79c1.99,-16.2 0,-24.71 -4.38,-26.74c-4.38,-2.02 -6.75,-0.5 -6.75,-0.5c0,0 -10.39,11.03 -8.8,27.24c0,7.29 -3.98,24.71 -3.19,32c0.77,7.01 0.8,19.61 2.93,24.89c-1.95,3.19 -3.09,9.05 -2.41,14.39c0.89,7.02 5.12,9.96 6.9,8.6c1.78,-1.36 2.67,-10.18 2.67,-10.18c0,0 3.34,3.17 3.34,-0.23c0,-3.39 -1.12,-9.28 -1.12,-9.28c0,0 -1.29,-2.13 -2.97,-3.78c1.89,-3.08 3.01,-17.36 3.01,-24.82c0,-7.7 8.77,-15.39 10.76,-31.6" />
		<path id="Fill 49" class="shp4" d="M34.52,39.91c3.25,10.05 12.28,13.51 17.26,15.2c4.98,1.69 10.95,1.01 14.27,-2.36c3.32,-3.38 6.31,-18.58 4.31,-31.75c-1.99,-13.17 -11.95,-20.94 -23.56,-18.58c-11.61,2.37 -21.24,9.8 -12.28,37.49" />
		<path id="Fill 50" class="shp4" d="M60.05,52.8l-20.05,-10.8c0.47,4.83 0.47,14.48 0.24,15.4c2.36,5.29 9.91,7.36 14.39,7.59c4.48,0.23 6.46,-2.52 6.37,-4.14c-0.1,-1.69 -0.77,-5.76 -0.96,-7.35c-0.05,-0.43 0.01,-0.7 0.01,-0.7" />
		<path id="Fill 51" class="shp6" d="M62.92,43.82c0,0 -2.12,-0.61 -3.63,-0.61c-1.51,0 -5.15,3.64 -5.15,3.64l-5.14,-0.61c0,0 3.33,2.43 6.35,2.73c3.03,0.3 7.57,-2.43 7.57,-2.43c0,0 3.33,1.82 4.24,1.82c0.91,0 4.84,-4.25 4.84,-4.25l-3.63,1.21l-3.63,-3.34l-1.82,1.82" />
		<path id="Fill 53" class="shp6" d="M57.26,16.11l0.61,-3.85l2.88,2.84l3.7,-1.22c0,0 4.52,15 5.75,16.62c1.23,1.62 7.8,2.84 7.8,2.84c0,0 -2.05,-1.62 -2.46,-3.24c-0.41,-1.62 0.41,-12.97 0,-16.62c-0.41,-3.65 -6.26,-11.04 -11.81,-11.96c-5.54,-0.91 -10.78,0 -10.78,0l-12.01,-1.52c0,0 -7.7,2.43 -10.16,8.82c-2.46,6.38 -4,15.81 -4,20.98c0,5.17 -2.77,7.3 -2.77,7.3l5.85,-2.13l-2.16,2.73c0,0 4.31,0.61 7.7,0c3.39,-0.61 5.54,-3.04 8.93,-6.69c0,0.91 -4.93,6.99 -4.93,6.99c0,0 8.63,-1.82 10.78,-4.26c4.31,-4.26 7.08,-17.63 7.08,-17.63" />
		<path id="Fill 54" class="shp0" d="M164.66,350c12.67,0 25.33,-2.79 34.96,-8.35c19.27,-11.13 19.17,-29.17 -0.23,-40.31c-9.7,-5.57 -22.38,-8.35 -35.05,-8.35c-12.67,0 -25.32,2.78 -34.96,8.35c-19.26,11.12 -19.17,29.17 0.23,40.31c9.7,5.56 22.38,8.35 35.05,8.35" />
		<path id="Fill 56" class="shp1" d="M191.24,305.27c0,0 -4.49,1.47 -8.98,0.73c-4.49,-0.73 -9.38,-1.84 -11.42,0c-2.04,1.83 -0.41,4.04 5.3,6.24c5.71,2.2 10.61,2.94 11.83,3.3c1.22,0.37 6.53,2.2 9.38,1.1c2.86,-1.1 2.86,-5.14 2.45,-6.24c-0.41,-1.1 -0.82,-4.4 -0.82,-4.4l-7.75,-0.73" />
		<path id="Fill 56" class="shp1" d="M146.24,319.27c0,0 -4.49,1.47 -8.98,0.73c-4.49,-0.73 -9.38,-1.84 -11.42,0c-2.04,1.83 -0.41,4.04 5.3,6.24c5.71,2.2 10.61,2.94 11.83,3.3c1.23,0.37 6.53,2.2 9.38,1.1c2.86,-1.1 2.86,-5.14 2.45,-6.24c-0.41,-1.1 -0.82,-4.4 -0.82,-4.4l-7.75,-0.73" />
		<path id="Fill 57" class="shp7" d="M201.72,196.48c0,0 -19.01,-9.19 -22.15,18.15c-3.13,27.34 7.59,69.6 7.59,94.69c8.81,8.02 11.62,0.4 11.62,0.4c-0.9,-8.51 -1.2,-72.91 1.48,-86.69c2.69,-13.78 1.46,-26.55 1.46,-26.55" />
		<path id="Fill 58" class="shp8" d="M201.98,199.68c1.33,-4.91 -55.97,-13.16 -57.75,-2.45c-1.78,10.7 -1.34,99 -0.45,124.86c9.35,8.92 10.13,0.02 11.02,-1.76c0.89,-1.78 9.47,-60.5 10.36,-69.87c0.89,-9.36 1.2,-19.17 12.89,-26.03c21.92,-8.7 23.5,-23.2 23.92,-24.75" />
		<path id="Fill 59" class="shp4" d="M186.63,117c-6.72,3.03 -6.72,13.33 -3.67,19.39c3.05,6.06 26.27,22.41 26.27,24.23c0,1.82 -11,19.99 -14.05,23.02c-3.05,3.03 -1.22,10.3 4.28,7.87c4.89,-3.03 29.33,-27.26 26.27,-34.53c-3.06,-7.27 -13.44,-21.21 -20.78,-29.08c-7.33,-7.87 -18.33,-10.91 -18.33,-10.91" />
		<path id="Fill 60" class="shp5" d="M165.23,116.22c0,0 -18.52,5.33 -25.8,17.09c-2.82,4.55 -3.96,19.07 0.88,27.96c9.74,17.88 -2.1,32.18 1.43,49.05c1.39,6.64 20.17,9.99 31.2,8.21c11.02,-1.78 30.56,-9.63 27.78,-22.19c-10.79,-48.78 -1.11,-54.41 -2.65,-63.03c-1.48,-8.3 -7.28,-13.98 -7.28,-13.98c0,0 -6.17,-7.1 -25.58,-3.11" />
		<path id="Fill 61" class="shp4" d="M177.52,59.84c0,0 -10.63,-2.98 -19.54,2.32c-8.91,5.31 -10.28,11.27 -9.94,19.56c0.34,8.29 -0.34,20.56 4.11,29.85c4.46,9.29 23.65,1.66 29.48,-1.99c5.83,-3.65 11.99,-18.24 11.31,-29.52c-0.69,-11.27 -4.8,-18.24 -15.42,-20.23" />
		<path id="Fill 62" class="shp4" d="M185,104.76c0,0 -23.11,-2.84 -24.33,2.44c-1.22,5.28 -5.67,11.78 -5.67,11.78c0,0 0.81,2.03 9.73,3.65c8.92,1.63 15.81,-2.43 15.81,-5.68c0,-3.25 4.46,-12.18 4.46,-12.18" />
		<path id="Fill 63" class="shp6" d="M154.66,61.84c0,0 -7.23,6.07 -6.63,17c0.6,10.92 10.84,9.11 13.25,14.57c1.81,-2.43 0,-7.89 0,-7.89c0,0 4.22,4.25 4.82,7.28c0.6,3.04 0.6,8.5 3.61,12.14c3.01,3.64 13.96,5.06 13.96,5.06c0,0 11.95,-11.74 13.15,-26.31c1.2,-14.57 -4.25,-27.71 -14.46,-29.14c-21.69,-3.04 -27.71,7.28 -27.71,7.28" />
		<path id="Fill 64" class="shp9" d="M187.19,68.86c-4.2,7.9 4.07,3.62 3.6,6.69c-2.85,18.54 5.4,22.49 5.4,22.49v-10.33c0,0 0,6.69 4.2,15.81c4.2,9.12 16.2,10.94 18.6,8.51c-7.8,-7.9 -6.6,-17.63 -6.6,-30.4c0,-12.77 -5.4,-17.02 -13.2,-20.06c-7.8,-3.04 -12,7.3 -12,7.3" />
		<path id="Fill 65" class="shp4" d="M152.47,132.96c0,0 -19.04,-16.32 -25.59,-29.01c-6.37,-12.36 2.46,-36.13 3.48,-46.86c1.6,-1.08 4.51,-3.19 5.64,-4.92c1.59,-2.42 6.74,-4.83 5.16,-5.64c-1.59,-0.81 -6.74,1.21 -6.74,1.21c0,0 8.33,-10.47 8.73,-13.29c0.39,-2.82 -6.74,-1.21 -11.11,2.02c-4.36,3.22 -8.73,16.52 -8.13,20.95c-1.79,2.42 -12.5,18.73 -13.69,34.44c-1.19,15.71 2.98,21.15 2.98,21.15c0,0 14.28,34.45 27.38,42.3c13.09,7.86 17.85,-13.9 11.9,-22.36" />
	</g>
</svg>