<svg xmlns="http://www.w3.org/2000/svg" viewBox="0 0 81 60" width="81" height="60">
	<style>
		tspan { white-space:pre }
		.shp0 { fill: #ffffff } 
	</style>
	<g id="logo">
		<path id="Fill 4" class="shp0" d="M29.34,26.11c0.3,0.52 0.98,0.7 1.51,0.4c0.53,-0.3 0.71,-0.97 0.4,-1.49c-0.3,-0.52 -0.98,-0.7 -1.51,-0.4c-0.53,0.3 -0.71,0.97 -0.4,1.49zM39.5,8.72c-0.61,0 -1.1,0.49 -1.1,1.09c0,0.6 0.49,1.09 1.1,1.09c0.61,0 1.1,-0.49 1.1,-1.09c0,-0.6 -0.49,-1.09 -1.1,-1.09zM49.66,26.11c0.3,-0.52 0.12,-1.19 -0.4,-1.49c-0.53,-0.3 -1.2,-0.12 -1.51,0.4c-0.3,0.52 -0.12,1.19 0.4,1.49c0.53,0.3 1.2,0.12 1.51,-0.4zM21.01,11.42v8.9l-0.01,0v8.94l5.69,-3.25c-0.17,-1.39 0.27,-2.68 1.79,-3.55c1.52,-0.87 3.95,-0.4 4.96,1.31c1,1.71 0.19,4.03 -1.33,4.9c-1.52,0.87 -2.87,0.6 -4,-0.24l-5.69,3.25l0,0l0,0.01l15.67,8.94c0.45,0.26 0.94,0.38 1.42,0.38c0.59,0 1.16,-0.18 1.64,-0.52l7.6,-4.34l0,0l7.83,-4.47l-5.69,-3.24c-1.13,0.84 -2.48,1.11 -4,0.24c-1.52,-0.87 -2.33,-3.18 -1.33,-4.9c1,-1.72 3.44,-2.18 4.96,-1.31c1.52,0.87 1.96,2.16 1.79,3.54l5.69,3.24l0,-8.94c0,-0.06 0,-0.11 -0.01,-0.17v-8.77c0,-0.51 -0.14,-0.99 -0.38,-1.4c-0.25,-0.42 -0.61,-0.78 -1.04,-1.02l0.01,-0.01l-15.67,-8.94l0,0l0,6.5c1.3,0.54 2.22,1.57 2.22,3.3c0,1.73 -1.62,3.59 -3.63,3.59c-2,0 -3.63,-1.85 -3.63,-3.59c0,-1.73 0.91,-2.76 2.22,-3.3l0,-6.5c-0.06,0.03 -0.12,0.07 -0.18,0.11l-7.65,4.37c-0.05,0.03 -0.1,0.06 -0.15,0.09l-7.69,4.39c-0.44,0.25 -0.79,0.61 -1.03,1.02c-0.25,0.44 -0.39,0.94 -0.38,1.44z" />
		<path id="Fill 5" class="shp0" d="M75.99,56.18v2.93h4.01v0.69h-4.77v-7.59h4.65v0.69h-3.88v2.62h3.63v0.68zM73.32,58.19l0.59,0.39c-0.27,0.41 -0.64,0.75 -1.13,1.02c-0.48,0.26 -1.04,0.4 -1.68,0.4c-1.13,0 -2.06,-0.38 -2.8,-1.13c-0.74,-0.75 -1.11,-1.71 -1.11,-2.86c0,-1.15 0.37,-2.1 1.11,-2.86c0.74,-0.75 1.67,-1.13 2.79,-1.13c0.55,0 1.07,0.11 1.55,0.33c0.48,0.22 0.86,0.51 1.12,0.87l-0.64,0.47c-0.18,-0.27 -0.45,-0.51 -0.81,-0.7c-0.36,-0.2 -0.77,-0.3 -1.21,-0.3c-0.94,0 -1.69,0.32 -2.26,0.96c-0.57,0.64 -0.85,1.43 -0.85,2.35c0,0.92 0.29,1.71 0.86,2.35c0.57,0.64 1.32,0.97 2.25,0.97c0.97,0 1.71,-0.38 2.2,-1.13zM60.47,52.2l4.36,6.47h0.02v-6.47h0.76v7.59h-0.95l-4.36,-6.53h-0.02v6.53h-0.76v-7.59zM54.81,53.06l-1.65,4.03h3.3zM52.87,57.8l-0.81,1.99h-0.84l3.24,-7.59h0.74l3.22,7.59h-0.85l-0.83,-1.99zM44.86,52.89v6.22h1.51c0.54,0 1.03,-0.09 1.47,-0.26c0.43,-0.18 0.78,-0.41 1.05,-0.71c0.27,-0.3 0.47,-0.63 0.61,-0.99c0.14,-0.36 0.21,-0.75 0.21,-1.15c0,-0.4 -0.07,-0.78 -0.21,-1.15c-0.14,-0.36 -0.35,-0.7 -0.61,-0.99c-0.27,-0.3 -0.62,-0.53 -1.05,-0.71c-0.43,-0.18 -0.92,-0.26 -1.47,-0.26zM44.1,59.8v-7.59h2.49c0.48,0 0.95,0.08 1.41,0.24c0.46,0.16 0.88,0.39 1.26,0.7c0.38,0.3 0.69,0.7 0.92,1.2c0.23,0.5 0.35,1.05 0.35,1.66c0,0.61 -0.12,1.16 -0.35,1.66c-0.23,0.5 -0.54,0.9 -0.92,1.2c-0.38,0.3 -0.8,0.54 -1.26,0.7c-0.46,0.16 -0.93,0.24 -1.41,0.24zM42.73,52.94l-1.15,1.23c-0.15,-0.19 -0.35,-0.35 -0.6,-0.47c-0.25,-0.12 -0.5,-0.18 -0.74,-0.18c-0.28,0 -0.53,0.06 -0.74,0.18c-0.21,0.12 -0.31,0.31 -0.31,0.58c0,0.12 0.02,0.23 0.07,0.32c0.05,0.09 0.13,0.17 0.25,0.24c0.12,0.07 0.23,0.12 0.34,0.17c0.11,0.05 0.28,0.1 0.49,0.17c0.28,0.09 0.49,0.17 0.65,0.23c0.15,0.06 0.35,0.15 0.6,0.28c0.24,0.13 0.43,0.27 0.57,0.41c0.13,0.14 0.25,0.33 0.36,0.57c0.11,0.24 0.16,0.5 0.16,0.79c0,0.82 -0.28,1.45 -0.83,1.88c-0.55,0.43 -1.23,0.65 -2.04,0.65c-0.54,0 -1.07,-0.1 -1.57,-0.29c-0.5,-0.19 -0.91,-0.46 -1.24,-0.8l1.19,-1.22c0.18,0.24 0.43,0.43 0.73,0.58c0.3,0.15 0.6,0.23 0.89,0.23c0.3,0 0.55,-0.07 0.75,-0.2c0.19,-0.13 0.29,-0.34 0.29,-0.63c0,-0.11 -0.03,-0.22 -0.08,-0.31c-0.05,-0.09 -0.11,-0.16 -0.17,-0.23c-0.06,-0.06 -0.18,-0.13 -0.34,-0.2c-0.16,-0.07 -0.3,-0.13 -0.41,-0.17c-0.11,-0.04 -0.3,-0.1 -0.55,-0.19c-0.28,-0.09 -0.51,-0.19 -0.71,-0.29c-0.2,-0.1 -0.4,-0.23 -0.59,-0.4c-0.2,-0.16 -0.35,-0.37 -0.46,-0.62c-0.11,-0.25 -0.16,-0.54 -0.16,-0.87c0,-0.4 0.08,-0.76 0.25,-1.08c0.17,-0.32 0.4,-0.57 0.68,-0.75c0.28,-0.18 0.59,-0.32 0.93,-0.41c0.34,-0.09 0.68,-0.14 1.04,-0.14c0.44,0 0.88,0.08 1.32,0.24c0.44,0.16 0.82,0.39 1.14,0.69zM34.72,54.55c0,-0.58 -0.42,-0.87 -1.27,-0.87h-0.79v1.79h0.76c0.87,0 1.3,-0.31 1.3,-0.92zM36.53,54.54c0,0.56 -0.14,1.02 -0.43,1.39c-0.29,0.37 -0.64,0.63 -1.07,0.78c-0.43,0.15 -0.92,0.22 -1.48,0.22h-0.9v2.86h-1.81v-7.59h2.75c0.89,0 1.6,0.18 2.13,0.55c0.53,0.37 0.8,0.96 0.8,1.79zM27.71,55.97c0,-0.67 -0.2,-1.23 -0.6,-1.66c-0.4,-0.44 -0.92,-0.65 -1.55,-0.65c-0.63,0 -1.14,0.22 -1.54,0.65c-0.4,0.44 -0.6,0.99 -0.6,1.66c0,0.69 0.2,1.25 0.6,1.69c0.4,0.44 0.91,0.67 1.54,0.67c0.63,0 1.14,-0.22 1.55,-0.67c0.4,-0.44 0.6,-1.01 0.6,-1.69zM29.65,55.97c0,1.19 -0.38,2.16 -1.15,2.91c-0.77,0.75 -1.75,1.12 -2.93,1.12c-1.18,0 -2.15,-0.37 -2.92,-1.12c-0.77,-0.75 -1.15,-1.72 -1.15,-2.91c0,-1.2 0.38,-2.16 1.15,-2.88c0.77,-0.72 1.74,-1.08 2.93,-1.08c1.19,0 2.17,0.36 2.94,1.08c0.77,0.72 1.15,1.68 1.15,2.88zM21.22,52.2l-2.89,7.59h-1.81l-2.84,-7.59h2.03l1.74,5.38h0.04l1.73,-5.38zM13.42,59.8h-5.23v-7.59h5.04v1.56h-3.29v1.43h3.11v1.47h-3.11v1.58h3.48zM5.11,55.98c0,-0.41 -0.07,-0.76 -0.2,-1.06c-0.13,-0.3 -0.32,-0.53 -0.56,-0.69c-0.24,-0.16 -0.49,-0.28 -0.77,-0.35c-0.28,-0.07 -0.58,-0.11 -0.92,-0.11h-0.9v4.44h0.86c0.73,0 1.32,-0.17 1.79,-0.53c0.47,-0.35 0.7,-0.92 0.7,-1.71zM6.64,57.69c-0.24,0.5 -0.56,0.9 -0.97,1.2c-0.41,0.3 -0.85,0.53 -1.34,0.68c-0.49,0.15 -1,0.23 -1.53,0.23h-2.79v-7.59h2.71c0.44,0 0.87,0.04 1.26,0.11c0.4,0.08 0.79,0.21 1.16,0.39c0.37,0.19 0.7,0.42 0.97,0.7c0.27,0.28 0.49,0.64 0.65,1.08c0.16,0.44 0.24,0.94 0.24,1.5c0,0.64 -0.12,1.22 -0.36,1.72z" />
	</g>
</svg>