<svg xmlns="http://www.w3.org/2000/svg" viewBox="0 0 74 58" width="74" height="58">
	<style>
		tspan { white-space:pre }
		.shp0 { fill: #000000 } 
		.shp1 { fill: #b4b4b3 } 
		.shp2 { fill: #52514f } 
		.shp3 { fill: #81807e } 
	</style>
	<g id="LOGO">
		<path id="Fill 1" class="shp0" d="M6.47,54.48c0,0.56 -0.11,1.06 -0.33,1.5c-0.22,0.44 -0.52,0.79 -0.9,1.05c-0.38,0.26 -0.79,0.46 -1.24,0.59c-0.45,0.13 -0.92,0.2 -1.42,0.2h-2.58v-6.64h2.51c0.41,0 0.8,0.03 1.17,0.1c0.37,0.07 0.73,0.18 1.07,0.34c0.35,0.16 0.64,0.37 0.9,0.61c0.25,0.24 0.45,0.56 0.6,0.94c0.15,0.38 0.23,0.82 0.23,1.31zM4.73,54.48c0,-0.36 -0.06,-0.66 -0.19,-0.92c-0.12,-0.26 -0.3,-0.46 -0.51,-0.61c-0.22,-0.14 -0.46,-0.25 -0.71,-0.31c-0.26,-0.06 -0.54,-0.09 -0.85,-0.09h-0.83v3.88h0.79c0.67,0 1.22,-0.15 1.65,-0.46c0.43,-0.31 0.65,-0.8 0.65,-1.49zM12.41,57.82h-4.84v-6.64h4.66v1.36h-3.04v1.25h2.88v1.29h-2.88v1.38h3.22zM19.63,51.18l-2.67,6.64h-1.67l-2.62,-6.64h1.88l1.61,4.71h0.04l1.6,-4.71zM27.42,54.47c0,1.04 -0.36,1.89 -1.07,2.55c-0.71,0.65 -1.62,0.98 -2.71,0.98c-1.09,0 -1.99,-0.33 -2.7,-0.98c-0.71,-0.65 -1.07,-1.5 -1.07,-2.55c0,-1.05 0.35,-1.89 1.06,-2.52c0.71,-0.63 1.61,-0.95 2.71,-0.95c1.1,0 2.01,0.32 2.72,0.95c0.71,0.63 1.06,1.47 1.06,2.52zM25.63,54.47c0,-0.59 -0.19,-1.07 -0.56,-1.45c-0.37,-0.38 -0.85,-0.57 -1.43,-0.57c-0.58,0 -1.06,0.19 -1.42,0.57c-0.37,0.38 -0.55,0.87 -0.55,1.45c0,0.6 0.18,1.09 0.55,1.48c0.37,0.39 0.84,0.58 1.42,0.58c0.58,0 1.06,-0.19 1.43,-0.58c0.37,-0.39 0.56,-0.88 0.56,-1.48zM33.79,53.22c0,0.49 -0.13,0.89 -0.4,1.22c-0.26,0.33 -0.59,0.55 -0.99,0.68c-0.39,0.13 -0.85,0.19 -1.37,0.19h-0.83v2.51h-1.67v-6.64h2.55c0.82,0 1.48,0.16 1.97,0.48c0.49,0.32 0.74,0.84 0.74,1.56zM32.11,53.23c0,-0.51 -0.39,-0.76 -1.17,-0.76h-0.73v1.57h0.7c0.8,0 1.2,-0.27 1.2,-0.81zM39.53,51.83l-1.07,1.08c-0.14,-0.17 -0.32,-0.31 -0.55,-0.41c-0.23,-0.11 -0.46,-0.16 -0.68,-0.16c-0.26,0 -0.49,0.05 -0.68,0.16c-0.19,0.1 -0.29,0.27 -0.29,0.51c0,0.11 0.02,0.2 0.07,0.28c0.05,0.08 0.12,0.15 0.23,0.21c0.11,0.06 0.21,0.11 0.32,0.15c0.1,0.04 0.25,0.09 0.45,0.15c0.25,0.08 0.45,0.15 0.6,0.2c0.14,0.05 0.33,0.13 0.55,0.25c0.23,0.12 0.4,0.24 0.52,0.36c0.12,0.13 0.23,0.29 0.33,0.5c0.1,0.21 0.15,0.44 0.15,0.69c0,0.72 -0.26,1.27 -0.77,1.65c-0.51,0.38 -1.14,0.57 -1.88,0.57c-0.5,0 -0.99,-0.08 -1.45,-0.25c-0.46,-0.17 -0.85,-0.4 -1.15,-0.7l1.1,-1.07c0.17,0.21 0.39,0.38 0.67,0.51c0.28,0.13 0.55,0.2 0.83,0.2c0.28,0 0.51,-0.06 0.69,-0.17c0.18,-0.12 0.27,-0.3 0.27,-0.55c0,-0.1 -0.02,-0.19 -0.07,-0.27c-0.05,-0.08 -0.1,-0.14 -0.16,-0.2c-0.06,-0.05 -0.16,-0.11 -0.31,-0.17c-0.15,-0.06 -0.28,-0.11 -0.38,-0.15c-0.1,-0.03 -0.27,-0.09 -0.51,-0.16c-0.25,-0.08 -0.47,-0.17 -0.66,-0.25c-0.18,-0.09 -0.37,-0.2 -0.55,-0.35c-0.18,-0.14 -0.32,-0.33 -0.42,-0.54c-0.1,-0.22 -0.15,-0.47 -0.15,-0.76c0,-0.35 0.08,-0.66 0.23,-0.94c0.16,-0.28 0.37,-0.5 0.63,-0.66c0.26,-0.16 0.55,-0.28 0.86,-0.36c0.31,-0.08 0.63,-0.12 0.96,-0.12c0.4,0 0.81,0.07 1.22,0.21c0.41,0.14 0.76,0.34 1.05,0.61zM40.79,57.82v-6.64h2.3c0.44,0 0.88,0.07 1.3,0.21c0.42,0.14 0.81,0.34 1.17,0.61c0.35,0.27 0.64,0.62 0.85,1.05c0.22,0.43 0.32,0.92 0.32,1.45c0,0.53 -0.11,1.01 -0.32,1.45c-0.22,0.43 -0.5,0.79 -0.85,1.05c-0.35,0.27 -0.74,0.47 -1.17,0.61c-0.42,0.14 -0.86,0.21 -1.3,0.21zM41.49,51.78v5.44h1.4c0.5,0 0.95,-0.08 1.36,-0.23c0.4,-0.15 0.73,-0.36 0.97,-0.62c0.25,-0.26 0.44,-0.55 0.57,-0.87c0.13,-0.32 0.2,-0.65 0.2,-1c0,-0.35 -0.07,-0.69 -0.2,-1c-0.13,-0.32 -0.32,-0.61 -0.57,-0.87c-0.25,-0.26 -0.57,-0.47 -0.97,-0.62c-0.4,-0.15 -0.85,-0.23 -1.36,-0.23zM48.91,56.08l-0.75,1.74h-0.77l3,-6.64h0.69l2.98,6.64h-0.78l-0.76,-1.74zM50.7,51.93l-1.53,3.53h3.05zM55.94,51.18l4.03,5.66h0.02v-5.66h0.7v6.64h-0.88l-4.03,-5.71h-0.02v5.71h-0.7v-6.64zM67.82,56.41l0.55,0.34c-0.25,0.36 -0.6,0.66 -1.04,0.89c-0.45,0.23 -0.96,0.35 -1.55,0.35c-1.04,0 -1.91,-0.33 -2.59,-0.99c-0.68,-0.66 -1.02,-1.49 -1.02,-2.5c0,-1.01 0.34,-1.84 1.03,-2.5c0.69,-0.66 1.55,-0.99 2.58,-0.99c0.51,0 0.99,0.1 1.43,0.29c0.45,0.19 0.79,0.45 1.03,0.76l-0.59,0.41c-0.16,-0.24 -0.41,-0.44 -0.75,-0.61c-0.34,-0.17 -0.71,-0.26 -1.12,-0.26c-0.87,0 -1.57,0.28 -2.09,0.84c-0.53,0.56 -0.79,1.25 -0.79,2.06c0,0.81 0.26,1.49 0.79,2.05c0.53,0.56 1.22,0.84 2.09,0.84c0.9,0 1.58,-0.33 2.04,-0.99zM70.29,57.22h3.71v0.6h-4.42v-6.64h4.3v0.6h-3.59v2.29h3.36v0.59h-3.36z" />
		<path id="Fill 2" class="shp0" d="M57,32.22v-9.72c0,-0.06 0,-0.12 -0.01,-0.18v-9.53c0,-1.13 -0.61,-2.11 -1.53,-2.64l0.01,-0.01l-16.94,-9.72c-1.05,-0.6 -2.31,-0.52 -3.25,0.12l-8.28,4.75c-0.06,0.03 -0.11,0.07 -0.17,0.1l-8.31,4.77c-0.99,0.57 -1.54,1.61 -1.52,2.68l0,9.67l0,0.01h-0.01l0,9.72c0,1.13 0.62,2.11 1.53,2.63l0,0.01l16.94,9.72c1.07,0.62 2.36,0.51 3.31,-0.15l8.22,-4.72l0,0.01l8.47,-4.86c0.98,-0.56 1.53,-1.59 1.53,-2.64" />
		<path id="Fill 3" class="shp1" d="M37,22l-17,-9.67c0.22,-0.38 0.55,-0.72 0.97,-0.95l7.21,-4.1c0.05,-0.03 0.1,-0.06 0.14,-0.09l7.18,-4.08c0.06,-0.04 0.11,-0.07 0.17,-0.1v6.08c-1.22,0.51 -2.08,1.47 -2.08,3.09c0,1.62 1.52,3.35 3.41,3.35c1.88,0 3.4,-1.73 3.4,-3.35c0,-1.62 -0.86,-2.58 -2.08,-3.09l0,-6.08l0,0l14.7,8.36l-0.01,0.01c0.4,0.23 0.74,0.56 0.97,0.96zM37,11.15c0.57,0 1.03,0.46 1.03,1.02c0,0.56 -0.46,1.02 -1.03,1.02c-0.57,0 -1.03,-0.46 -1.03,-1.02c0,-0.56 0.46,-1.02 1.03,-1.02z" />
		<path id="Fill 4" class="shp2" d="M37,22.66v19.34c-0.47,0 -0.95,-0.11 -1.38,-0.35l-15.24,-8.36l0,-0.01l0,0l5.54,-3.03c1.1,0.79 2.42,1.04 3.89,0.23c1.48,-0.81 2.27,-2.98 1.29,-4.58c-0.97,-1.6 -3.34,-2.04 -4.82,-1.23c-1.48,0.81 -1.91,2.02 -1.74,3.32l-5.54,3.04v-8.36h0.01v-8.32c-0.01,-0.47 0.12,-0.94 0.37,-1.35zM27.11,28.08c-0.3,-0.49 -0.12,-1.11 0.39,-1.39c0.51,-0.28 1.17,-0.11 1.46,0.37c0.3,0.49 0.12,1.11 -0.39,1.39c-0.51,0.28 -1.17,0.11 -1.46,-0.37z" />
		<path id="Fill 5" class="shp3" d="M49.47,27.98c0.17,-1.29 -0.26,-2.5 -1.74,-3.31c-1.48,-0.81 -3.85,-0.38 -4.82,1.23c-0.97,1.6 -0.18,3.77 1.29,4.58c1.48,0.81 2.79,0.56 3.89,-0.22l5.53,3.03l-7.62,4.18l0,0l-7.4,4.05c-0.47,0.31 -1.03,0.48 -1.6,0.48v-19.34l17.63,-9.66c0.23,0.38 0.37,0.83 0.37,1.31v8.19c0,0.05 0.01,0.1 0.01,0.16v8.36zM46.89,28.08c-0.3,0.49 -0.95,0.65 -1.47,0.37c-0.51,-0.28 -0.69,-0.9 -0.39,-1.39c0.3,-0.49 0.95,-0.65 1.47,-0.37c0.51,0.28 0.69,0.9 0.39,1.39z" />
	</g>
</svg>