<?xml version="1.0" encoding="UTF-8" standalone="no"?>
<svg id="svg2" xmlns:rdf="http://www.w3.org/1999/02/22-rdf-syntax-ns#" xmlns="http://www.w3.org/2000/svg" height="229" width="377" version="1.1" xmlns:cc="http://creativecommons.org/ns#" xmlns:dc="http://purl.org/dc/elements/1.1/" viewBox="0 0 377 229">
 <metadata id="metadata95">
  <rdf:RDF>
   <cc:Work rdf:about="">
    <dc:format>image/svg+xml</dc:format>
    <dc:type rdf:resource="http://purl.org/dc/dcmitype/StillImage"/>
    <dc:title/>
   </cc:Work>
  </rdf:RDF>
 </metadata>
 <style id="style4">tspan { white-space:pre }
		.shp0 { fill: #f8fafb } 
		.shp1 { fill: #6276e7 } 
		.shp2 { fill: #303d87 } 
		.shp3 { fill: #a0afff } 
		.shp4 { fill: #b39134 } 
		.shp5 { fill: #d87236 } 
		.shp6 { fill: #795228 } 
		.shp7 { fill: #a76e30 } 
		.shp8 { fill: #7b5228 } 
		.shp9 { fill: #846c2f } 
		.shp10 { fill: #e4932e } 
		.shp11 { fill: #f6c423 }</style>
 <g id="iso">
  <path id="Oval 3" d="m188 229c103.83 0 188-51.26 188-114.5s-84.17-114.5-188-114.5-188 51.26-188 114.5 84.17 114.5 188 114.5z" class="shp0"/>
  <path id="Fill 1115" d="m133.18 23.97v1.01c-0.16-0.14-0.31-0.26-0.46-0.41 0.12-0.21 0.28-0.41 0.46-0.61zm2.53 22.22c1.68 0.99 3.62 1.69 5.8 1.81 0.81 0.04 1.57-0.39 1.57-0.86 0.02-3.56 0.05-7.83 0.08-11.95 2.25-0.71 4.01-2.17 4.54-3.47 0.12-0.31 0.18-0.6 0.18-0.89l0.12-19.2c0 0.28-0.06 0.57-0.18 0.86-0.58 1.44-2.66 3.09-5.27 3.69l0.03-4.29c0-0.31-0.18-0.55-0.48-0.74-0.95-0.55-3.08-0.5-4.51-0.23-0.88 0.17-1.58 0.42-2.19 0.73l0.06-8.65c0 0.12-0.09 0.24-0.3 0.35-1.99 1.01-2.81 2.3-2.82 3.64l-0.11 17.05c-0.54-0.55-1.09-1.1-1.52-1.62-0.24-0.29-0.44-0.57-0.65-0.84l0.07-11.77c-0.46-0.94-0.75-1.93-0.74-2.87l-0.09 13.55c-1.2-1.8-2.19-3.79-2.18-5.75l-0.12 19.21c-0.02 2.24 1.26 4.55 2.68 6.53 0.26 0.37 0.56 0.76 0.89 1.17 1.24 1.52 2.96 3.26 5.13 4.53zm12.29-34.57v-0.03zm-20.88 3.12v-0.02 0.02z" class="shp1"/>
  <path id="Fill 1116" d="m233.56 146.89l-2.98-0.91 19.15-11.05c4.9-2.83 10.94-3.1 14.67-0.92 0.68 0.4 1.28 0.87 1.79 1.43l1.54 1.72-12.35 7.13c-5.79 3.34-15.59 4.51-21.81 2.61zm73.39-67.27c-0.01 1.12-1.35 2.34-3.25 3.52-0.14 0.09-29.79 17.14-29.79 17.14-3.98 2.3-8.2 2.46-11.04 0.8-1.16-0.68-2.09-1.65-2.67-2.92l-4.5-9.84c1.27-0.09 2.67-0.13 4.24-0.09l0.13-19.22c-6.96-0.17-11.05 0.89-11.07 3.78l-0.13 19.21c0 0.58 0.15 1.23 0.49 1.96l8.87 19.4c-2.43 0-5.01 0.57-7.42 1.72l1.04-7.07c1-1.55-0.18-1.1-0.52-1.61-0.17-0.26-0.39-0.5-0.65-0.74-0.26-0.25-0.51-0.41-0.76-0.57-1.01-0.63-1.86-1.95-2.77-2.17-0.9-0.22-2.87 0.67-3.83 0.66-2.16 0.08-3.94 0.46-5.32 1.25-0.36 0.21-0.69 0.44-0.96 0.68-0.82 0.72-1.23 1.56-1.24 2.39l-0.1 15.81-16.49 9.53c-2.74 1.58-4.1 3.38-4.11 5.04l-0.05 7.55c-9.77 1.38-20.18 1.77-30.82 1.22-19.52-1.02-39.83-5.23-58.43-12.45-7.9-3.07-15.5-6.68-22.59-10.83-7.1-4.15-13.28-8.58-18.52-13.18-12.34-10.85-19.48-22.67-21.12-34.01-0.26-1.77-0.38-3.52-0.37-5.26l-0.13 19.21c-0.01 1.74 0.11 3.51 0.37 5.28 0.76 5.23 2.75 10.56 5.81 15.86-5.68 0.33-10.19 0.46-11.22 0.17-2.01-0.58-3.73-1.32-5.27-2.22-2.28-1.33-4.15-3.01-5.91-5.01l-5.05-5.75c-2.48-2.81-3.68-5.67-3.67-8.12l-0.13 19.22c-0.02 2.44 1.19 5.31 3.67 8.11l5.05 5.76c1.76 2 3.63 3.67 5.91 5.01 1.54 0.9 3.26 1.64 5.27 2.22 1.9 0.54 15.48-0.37 26.66-1.24 5.24 4.61 11.42 9.04 18.52 13.19 6.35 3.71 13.14 6.92 20.15 9.77l-0.1 15.06c0 0.73 0.07 1.25 0.27 1.48 0.99 1.17 2.25 2.17 3.78 3.07 2.28 1.33 5.14 2.42 8.57 3.45l9.9 2.98c10.35 3.12 21.22 2.85 24.28-0.61l14.16-11.93c14.15 0.73 27.88-0.2 40.26-2.89l8.84 2.7c6.21 1.89 16.01 0.73 21.78-2.61l13.25-7.66c3.91-2.26 6.13-5.6 6.15-8.64l0.13-19.22c-0.02 2.66-1.81 5.52-4.87 7.71 1.44-2.61 2.51-5.32 3.2-8.1 0.74-0.19 1.48-0.44 2.24-0.75l27.06-13.74c2.94-1.19 4.38-2.63 4.39-4.01l0.43-19.23v-10.24zm-243.76-8.28v-0.01 0.01zm248.13 21.71c0.13-0.07 0.26-0.15 0.38-0.23-0.13 0.08-0.25 0.15-0.38 0.23zm1.46-1.01c0.04-0.04 0.1-0.07 0.14-0.11-0.04 0.04-0.1 0.07-0.14 0.11zm0.98-1.27c-0.04 0.08-0.07 0.16-0.11 0.24 0.04-0.08 0.07-0.16 0.11-0.24z" class="shp1"/>
  <path id="Fill 1117" d="m249.65 105.35c-3.13-1.77-8.19-1.8-11.31-0.05s-3.12 4.6 0.01 6.37 8.19 1.77 11.31 0.02 3.11-4.58-0.02-6.35" class="shp2"/>
  <path id="Fill 1118" d="m238.33 104.89c2.95-1.7 7.72-1.67 10.67 0.06s2.96 4.49 0.02 6.19c-2.95 1.71-7.72 1.7-10.67-0.02-2.95-1.73-2.96-4.51-0.01-6.22zm-100.49-93.42c1.44-0.27 3.6-0.33 4.55 0.23 0.42 0.24 0.6 0.61 0.4 1.13-0.98 2.41-4.15 1.39-6.33 0.11-0.37-0.22-0.72-0.44-1.02-0.66 0.65-0.34 1.42-0.62 2.4-0.8zm167.42 65.64c-3-1.75-15.64-7.36-44.81-8.17-6.51-7.36-15.28-14.44-26.23-20.84-29.6-17.3-63.93-27.63-96.8-25.65-1.9-1.87-3.25-3.9-3.84-6.04-0.18-0.68-0.18-1.38 0.04-2.03 0.43 0.34 0.9 0.67 1.41 0.97 1.42 0.83 3.16 1.45 5.22 1.6 3.77 0.26 7.14-2.01 7.91-3.91 0.58-1.43-0.25-2.7-1.8-3.62-1.28-0.74-3.05-1.25-4.95-1.41-3.02-0.26-6.1 0.15-8.54 1.08-0.78-1.88-0.26-3.81 2.51-5.21 0.44-0.22 0.35-0.52 0.04-0.71-0.25-0.15-0.65-0.23-1.04-0.14-5.25 1.14-5.49 4.43-4.06 7.33-0.67 0.42-1.24 0.93-1.72 1.46-2.67 3.15-0.81 6.96 1.39 10.02 0.26 0.36 0.57 0.76 0.9 1.17-15.66 1.75-30.89 6.4-45 14.57-17.31 10.01-24.56 24.09-22.4 38.98l-20.64 8.18c-5.97 1.77-6.51 8.1-1.17 14.15l5.06 5.77c1.76 2 3.64 3.69 5.93 5.02 1.54 0.9 3.27 1.65 5.28 2.23 1.9 0.54 15.51-0.37 26.72-1.25 5.25 4.62 11.45 9.06 18.56 13.22s14.73 7.78 22.65 10.86c-1.56 6.51-3.2 14.43-2.28 15.53 0.99 1.17 2.25 2.18 3.79 3.08 2.28 1.33 5.16 2.42 8.59 3.46l9.93 2.99c10.38 3.13 21.27 2.85 24.34-0.61l14.19-11.97c14.18 0.74 27.95-0.21 40.35-2.9l8.85 2.71c6.23 1.9 16.04 0.73 21.84-2.62l13.28-7.68c5.79-3.35 7.88-9.07 4.62-12.68l-4.62-5.16c2.18-3.34 3.71-6.86 4.61-10.49 0.65-2.65 0.97-5.36 0.84-8.05 0.04-0.02 0.08-0.04 0.11-0.07l29.42-16.93c0.16-0.09 0.3-0.18 0.45-0.26 3.14-1.95 3.58-4.02 1.72-5.58-0.11-0.09-0.32-0.23-0.64-0.42zm-31.06 23.26c-3.82 2.22-7.98 2.38-10.81 0.79 2.81 1.57 6.91 1.43 10.81-0.79zm-23.79-24.43l1.06 2.32z" class="shp3"/>
  <g id="Group 2">
   <path id="Fill 1119" d="m283 21.26c0.01-3.66-2.4-7.32-7.23-10.11-9.59-5.54-25.09-5.54-34.62 0-4.73 2.75-7.1 6.36-7.11 9.96l-0.04 12.74c0.01-3.61 2.38-7.21 7.11-9.96 9.53-5.54 25.03-5.54 34.62 0 4.83 2.79 7.24 6.45 7.23 10.11l0.04-12.74" class="shp4"/>
   <path id="Fill 1120" d="m283 21.26c0.01-3.66-2.4-7.32-7.23-10.11-9.59-5.54-25.09-5.54-34.62 0-4.73 2.75-7.1 6.36-7.11 9.96l-0.04 12.74c0.01-3.61 2.38-7.21 7.11-9.96 9.53-5.54 25.03-5.54 34.62 0 4.83 2.79 7.24 6.45 7.23 10.11l0.04-12.74" class="shp4"/>
   <path id="Fill 1121" d="m283 21.26c0.01-3.66-2.4-7.32-7.23-10.11-9.59-5.54-25.09-5.54-34.62 0-4.73 2.75-7.1 6.36-7.11 9.96l-0.04 12.74c0.01-3.61 2.38-7.21 7.11-9.96 9.53-5.54 25.03-5.54 34.62 0 4.83 2.79 7.24 6.45 7.23 10.11l0.04-12.74" class="shp4"/>
   <path id="Fill 1122" d="m283 21.26c0.01-3.66-2.4-7.32-7.23-10.11-9.59-5.54-25.09-5.54-34.62 0-4.73 2.75-7.1 6.36-7.11 9.96l-0.04 12.74c0.01-3.61 2.38-7.21 7.11-9.96 9.53-5.54 25.03-5.54 34.62 0 4.83 2.79 7.24 6.45 7.23 10.11l0.04-12.74" class="shp4"/>
   <path id="Fill 1123" d="m283 21.26c0.01-3.66-2.4-7.32-7.23-10.11-9.59-5.54-25.09-5.54-34.62 0-4.73 2.75-7.1 6.36-7.11 9.96l-0.04 12.74c0.01-3.61 2.38-7.21 7.11-9.96 9.53-5.54 25.03-5.54 34.62 0 4.83 2.79 7.24 6.45 7.23 10.11l0.04-12.74" class="shp4"/>
   <path id="Fill 1124" d="m282 21.94c0.01-3.57-2.31-7.15-6.94-9.87-9.2-5.42-24.05-5.42-33.2 0-4.54 2.69-6.82 6.21-6.83 9.74l-0.04 13.06c0.01-3.53 2.28-7.05 6.83-9.74 9.15-5.42 24-5.42 33.2 0 4.63 2.73 6.95 6.31 6.94 9.87l0.04-13.06" class="shp5"/>
   <path id="Fill 1125" d="m283 21.26c0.01-3.66-2.4-7.32-7.23-10.11-9.59-5.54-25.09-5.54-34.62 0-4.73 2.75-7.1 6.36-7.11 9.96l-0.04 12.74c0.01-3.61 2.38-7.21 7.11-9.96 9.53-5.54 25.03-5.54 34.62 0 4.83 2.79 7.24 6.45 7.23 10.11l0.04-12.74" class="shp4"/>
   <path id="Fill 1126" d="m283 21.26c0.01-3.66-2.4-7.32-7.23-10.11-9.59-5.54-25.09-5.54-34.62 0-4.73 2.75-7.1 6.36-7.11 9.96l-0.04 12.74c0.01-3.61 2.38-7.21 7.11-9.96 9.53-5.54 25.03-5.54 34.62 0 4.83 2.79 7.24 6.45 7.23 10.11l0.04-12.74" class="shp4"/>
   <path id="Fill 1127" d="m283 21.26c0.01-3.66-2.4-7.32-7.23-10.11-9.59-5.54-25.09-5.54-34.62 0-4.73 2.75-7.1 6.36-7.11 9.96l-0.04 12.74c0.01-3.61 2.38-7.21 7.11-9.96 9.53-5.54 25.03-5.54 34.62 0 4.83 2.79 7.24 6.45 7.23 10.11l0.04-12.74" class="shp4"/>
   <path id="Fill 1128" d="m270.47 13l-2.44 1.37-0.04 12.63 2.44-1.37 0.04-12.63" class="shp6"/>
   <path id="Fill 1129" d="m268 14.53c-3.2-1.68-6.95-2.34-10.96-0.08l-0.04 12.47c4.01-2.25 7.76-1.59 10.96 0.09l0.04-12.47" class="shp7"/>
   <path id="Fill 1130" d="m272.74 14.5l-2.71-1.5-0.04 12.5 2.71 1.5 0.04-12.5" class="shp8"/>
   <path id="Fill 1131" d="m256.79 15l-1.75 1.01-0.04 12.99 1.75-1.02 0.04-12.98" class="shp6"/>
   <path id="Fill 1132" d="m273.5 15l-2.46 1.38-0.04 12.62 2.46-1.38 0.04-12.61" class="shp9"/>
   <path id="Fill 1133" d="m260.72 17l-0.68 0.39-0.04 12.61 0.69-0.39 0.04-12.61" class="shp9"/>
   <path id="Fill 1134" d="m260.9 18c-0.57 0.33-0.87 0.63-0.87 0.95l-0.04 13.05c0-0.32 0.3-0.62 0.86-0.95l0.04-13.05" class="shp4"/>
   <path id="Fill 1135" d="m255.84 16c-0.97 0.55-2.8 1.76-2.81 3.29l-0.04 12.71c0-1.53 1.84-2.74 2.81-3.28l0.04-12.72" class="shp7"/>
   <path id="Fill 1136" d="m275 19.26c-0.94-1.04-2.11-2.06-3.97-3.26l-0.03 12.74c1.86 1.2 3.02 2.22 3.97 3.26l0.03-12.74" class="shp7"/>
   <path id="Fill 1137" d="m261.22 20.18c-0.8-0.46-1.18-0.83-1.18-1.18l-0.04 12.82c0 0.35 0.38 0.73 1.18 1.18l0.04-12.82" class="shp7"/>
   <path id="Fill 1138" d="m271 21.49c-1.55-1.03-4.47-2.8-5.87-3.57-0.1-0.06-0.2-0.12-0.3-0.17-1.42-0.79-2.34-1.07-3.8-0.25l-0.04 12.51c1.46-0.82 2.37-0.54 3.79 0.25 0.1 0.05 0.2 0.11 0.31 0.17 1.4 0.77 4.32 2.54 5.86 3.57l0.04-12.51" class="shp4"/>
   <path id="Fill 1139" d="m263.34 21.29l-2.3-1.29-0.04 12.71 2.3 1.29 0.04-12.71" class="shp8"/>
   <path id="Fill 1140" d="m283 21.26c0.01-3.66-2.4-7.32-7.23-10.11-9.59-5.54-25.09-5.54-34.62 0-4.73 2.75-7.1 6.36-7.11 9.96l-0.04 12.74c0.01-3.61 2.38-7.21 7.11-9.96 9.53-5.54 25.03-5.54 34.62 0 4.83 2.79 7.24 6.45 7.23 10.11l0.04-12.74" class="shp4"/>
   <path id="Fill 1141" d="m282 21.94c0.01-3.57-2.31-7.15-6.94-9.87-9.2-5.42-24.05-5.42-33.2 0-4.54 2.69-6.82 6.21-6.83 9.74l-0.04 13.06c0.01-3.53 2.28-7.05 6.83-9.74 9.15-5.42 24-5.42 33.2 0 4.63 2.73 6.95 6.31 6.94 9.87l0.04-13.06" class="shp5"/>
   <path id="Fill 1142" d="m283 21.26c0.01-3.66-2.4-7.32-7.23-10.11-9.59-5.54-25.09-5.54-34.62 0-4.73 2.75-7.1 6.36-7.11 9.96l-0.04 12.74c0.01-3.61 2.38-7.21 7.11-9.96 9.53-5.54 25.03-5.54 34.62 0 4.83 2.79 7.24 6.45 7.23 10.11l0.04-12.74" class="shp4"/>
   <path id="Fill 1143" d="m282 21.94c0.01-3.57-2.31-7.15-6.94-9.87-9.2-5.42-24.05-5.42-33.2 0-4.54 2.69-6.82 6.21-6.83 9.74l-0.04 13.06c0.01-3.53 2.28-7.05 6.83-9.74 9.15-5.42 24-5.42 33.2 0 4.63 2.73 6.95 6.31 6.94 9.87l0.04-13.06" class="shp5"/>
   <path id="Fill 1144" d="m274.67 19l-3.63 2.09-0.04 12.91 3.63-2.09 0.04-12.91" class="shp9"/>
   <path id="Fill 1145" d="m255.6 22.07c-1.91-1.09-2.57-2.14-2.56-3.07l-0.04 12.92c0 0.94 0.66 1.99 2.56 3.08l0.04-12.93" class="shp4"/>
   <path id="Fill 1146" d="m257.26 23.25l-2.22-1.25-0.04 12.75 2.22 1.25 0.04-12.75" class="shp9"/>
   <path id="Fill 1147" d="m246.62 21l-3.58 2.06-0.04 12.94 3.58-2.06 0.04-12.94" class="shp6"/>
   <path id="Fill 1148" d="m265.29 23.83c0-0.91-0.61-1.88-2.25-2.83l-0.04 13.16c1.64 0.96 2.26 1.93 2.25 2.84l0.04-13.17" class="shp7"/>
   <path id="Fill 1149" d="m257.98 24c0-0.3-0.28-0.62-0.94-1l-0.04 13c0.66 0.38 0.94 0.71 0.94 1l0.04-13" class="shp4"/>
   <path id="Fill 1150" d="m257.89 24c0 0.32-0.33 0.62-0.86 0.93l-0.04 13.07c0.53-0.31 0.86-0.6 0.86-0.93l0.04-13.07" class="shp7"/>
   <path id="Fill 1151" d="m257.85 25l-0.81 0.45-0.04 12.55 0.81-0.45 0.04-12.55" class="shp6"/>
   <path id="Fill 1152" d="m257 25.15c-1.21 0.68-2.48 0.31-3.68-0.35-2.65-1.47-5.22-3.12-6.28-3.8l-0.04 12.49c1.07 0.68 3.64 2.33 6.29 3.79 1.2 0.67 2.47 1.03 3.68 0.36l0.04-12.49" class="shp7"/>
   <path id="Fill 1153" d="m247 26.3c-2.15-1.35-2.74-1.92-3.97-3.3l-0.03 12.7c1.22 1.37 1.81 1.95 3.97 3.3l0.03-12.7" class="shp4"/>
   <path id="Fill 1154" d="m264.92 24c0 1.36-1.5 2.57-2.88 3.34l-0.04 12.66c1.38-0.78 2.87-1.98 2.88-3.34l0.04-12.66" class="shp4"/>
   <path id="Fill 1155" d="m288 21.17c-0.01 4.35-2.87 8.7-8.57 12.03-11.48 6.69-30.14 6.69-41.69 0-5.82-3.36-8.72-7.78-8.7-12.19l-0.04 12.78c-0.01 4.41 2.89 8.83 8.71 12.2 11.55 6.69 30.21 6.69 41.69 0 5.7-3.32 8.56-7.67 8.57-12.03l0.04-12.78" class="shp4"/>
   <path id="Fill 1156" d="m288 21.17c-0.01 4.35-2.87 8.7-8.57 12.03-11.48 6.69-30.14 6.69-41.69 0-5.82-3.36-8.72-7.78-8.7-12.19l-0.04 12.78c-0.01 4.41 2.89 8.83 8.71 12.2 11.55 6.69 30.21 6.69 41.69 0 5.7-3.32 8.56-7.67 8.57-12.03l0.04-12.78" class="shp4"/>
   <path id="Fill 1157" d="m262.23 27l-1.19 0.71-0.04 13.29 1.19-0.71 0.04-13.29" class="shp9"/>
   <path id="Fill 1158" d="m288 21.17c-0.01 4.35-2.87 8.7-8.57 12.03-11.48 6.69-30.14 6.69-41.69 0-5.82-3.36-8.72-7.78-8.7-12.19l-0.04 12.78c-0.01 4.41 2.89 8.83 8.71 12.2 11.55 6.69 30.21 6.69 41.69 0 5.7-3.32 8.56-7.67 8.57-12.03l0.04-12.78" class="shp4"/>
   <path id="Fill 1159" d="m288 21.17c-0.01 4.35-2.87 8.7-8.57 12.03-11.48 6.69-30.14 6.69-41.69 0-5.82-3.36-8.72-7.78-8.7-12.19l-0.04 12.78c-0.01 4.41 2.89 8.83 8.71 12.2 11.55 6.69 30.21 6.69 41.69 0 5.7-3.32 8.56-7.67 8.57-12.03l0.04-12.78" class="shp4"/>
   <path id="Fill 1160" d="m288 21.17c-0.01 4.35-2.87 8.7-8.57 12.03-11.48 6.69-30.14 6.69-41.69 0-5.82-3.36-8.72-7.78-8.7-12.19l-0.04 12.78c-0.01 4.41 2.89 8.83 8.71 12.2 11.55 6.69 30.21 6.69 41.69 0 5.7-3.32 8.56-7.67 8.57-12.03l0.04-12.78" class="shp4"/>
   <path id="Fill 1161" d="m288 21.17c-0.01 4.35-2.87 8.7-8.57 12.03-11.48 6.69-30.14 6.69-41.69 0-5.82-3.36-8.72-7.78-8.7-12.19l-0.04 12.78c-0.01 4.41 2.89 8.83 8.71 12.2 11.55 6.69 30.21 6.69 41.69 0 5.7-3.32 8.56-7.67 8.57-12.03l0.04-12.78" class="shp4"/>
   <path id="Fill 1162" d="m288 21.17c-0.01 4.35-2.87 8.7-8.57 12.03-11.48 6.69-30.14 6.69-41.69 0-5.82-3.36-8.72-7.78-8.7-12.19l-0.04 12.78c-0.01 4.41 2.89 8.83 8.71 12.2 11.55 6.69 30.21 6.69 41.69 0 5.7-3.32 8.56-7.67 8.57-12.03l0.04-12.78" class="shp4"/>
   <path id="Fill 1163" d="m288 21.17c-0.01 4.35-2.87 8.7-8.57 12.03-11.48 6.69-30.14 6.69-41.69 0-5.82-3.36-8.72-7.78-8.7-12.19l-0.04 12.78c-0.01 4.41 2.89 8.83 8.71 12.2 11.55 6.69 30.21 6.69 41.69 0 5.7-3.32 8.56-7.67 8.57-12.03l0.04-12.78" class="shp4"/>
   <path id="Fill 1164" d="m288 21.17c-0.01 4.35-2.87 8.7-8.57 12.03-11.48 6.69-30.14 6.69-41.69 0-5.82-3.36-8.72-7.78-8.7-12.19l-0.04 12.78c-0.01 4.41 2.89 8.83 8.71 12.2 11.55 6.69 30.21 6.69 41.69 0 5.7-3.32 8.56-7.67 8.57-12.03l0.04-12.78" class="shp4"/>
   <path id="Fill 1165" d="m288 21.17c-0.01 4.35-2.87 8.7-8.57 12.03-11.48 6.69-30.14 6.69-41.69 0-5.82-3.36-8.72-7.78-8.7-12.19l-0.04 12.78c-0.01 4.41 2.89 8.83 8.71 12.2 11.55 6.69 30.21 6.69 41.69 0 5.7-3.32 8.56-7.67 8.57-12.03l0.04-12.78" class="shp4"/>
   <path id="Fill 1166" d="m261 28c-4.54 2.83-8.28 1.79-10.97 0.13l-0.03 13.23c2.68 1.66 6.43 2.69 10.97-0.13l0.03-13.23" class="shp4"/>
   <path id="Fill 1167" d="m282 21.14c-0.01 3.52-2.29 7.05-6.83 9.74-9.15 5.42-23.99 5.42-33.2 0-4.63-2.73-6.95-6.3-6.94-9.87l-0.04 13.06c-0.01 3.57 2.3 7.15 6.93 9.87 9.21 5.42 24.06 5.42 33.2 0 4.54-2.7 6.82-6.21 6.83-9.74l0.04-13.06" class="shp7"/>
   <path id="Fill 1168" d="m283 21.14c-0.01 3.61-2.38 7.21-7.11 9.97-9.53 5.54-25.03 5.54-34.62 0-4.83-2.79-7.24-6.45-7.23-10.11l-0.04 12.74c-0.01 3.66 2.4 7.32 7.23 10.1 9.59 5.55 25.09 5.55 34.62 0 4.74-2.75 7.11-6.35 7.12-9.96l0.04-12.74" class="shp5"/>
   <path id="Fill 1169" d="m283 21.14c-0.01 3.61-2.38 7.21-7.11 9.97-9.53 5.54-25.03 5.54-34.62 0-4.83-2.79-7.24-6.45-7.23-10.11l-0.04 12.74c-0.01 3.66 2.4 7.32 7.23 10.1 9.59 5.55 25.09 5.55 34.62 0 4.74-2.75 7.11-6.35 7.12-9.96l0.04-12.74" class="shp5"/>
   <path id="Fill 1170" d="m283 21.14c-0.01 3.61-2.38 7.21-7.11 9.97-9.53 5.54-25.03 5.54-34.62 0-4.83-2.79-7.24-6.45-7.23-10.11l-0.04 12.74c-0.01 3.66 2.4 7.32 7.23 10.1 9.59 5.55 25.09 5.55 34.62 0 4.74-2.75 7.11-6.35 7.12-9.96l0.04-12.74" class="shp5"/>
   <path id="Fill 1171" d="m283 21.14c-0.01 3.61-2.38 7.21-7.11 9.97-9.53 5.54-25.03 5.54-34.62 0-4.83-2.79-7.24-6.45-7.23-10.11l-0.04 12.74c-0.01 3.66 2.4 7.32 7.23 10.1 9.59 5.55 25.09 5.55 34.62 0 4.74-2.75 7.11-6.35 7.12-9.96l0.04-12.74" class="shp5"/>
   <path id="Fill 1172" d="m283 21.14c-0.01 3.61-2.38 7.21-7.11 9.97-9.53 5.54-25.03 5.54-34.62 0-4.83-2.79-7.24-6.45-7.23-10.11l-0.04 12.74c-0.01 3.66 2.4 7.32 7.23 10.1 9.59 5.55 25.09 5.55 34.62 0 4.74-2.75 7.11-6.35 7.12-9.96l0.04-12.74" class="shp5"/>
   <path id="Fill 1173" d="m241.94 11.73c9.09-5.4 23.85-5.4 33 0s9.2 14.13 0.11 19.53-23.85 5.4-33 0-9.2-14.13-0.11-19.53zm33.83-0.48c-9.6-5.66-25.11-5.66-34.65 0s-9.49 14.84 0.11 20.51c9.6 5.66 25.11 5.66 34.65 0 9.54-5.67 9.49-14.84-0.11-20.51z" class="shp10"/>
   <path id="Fill 1174" d="m272.42 14.75l-2.63-1.56-2.36 1.42c-3.15-1.76-6.83-2.45-10.77-0.09l-1.7 1.02c-1.5 0.9-5.17 3.54-0.24 6.47l2.16 1.28c1.33 0.8 1.07 1.34 0.08 1.93l-0.79 0.47c-1.18 0.71-2.42 0.32-3.58-0.37-2.58-1.53-5.08-3.26-6.12-3.97l-3.47 2.08c1.24 1.42 1.84 2 4.02 3.39l-2.29 1.37 2.63 1.56 2.26-1.36c2.75 1.64 6.59 2.65 11.24-0.13l1.16-0.69c2.19-1.31 4.7-3.82 0.61-6.25l-2.23-1.33c-1.46-0.87-1.49-1.44-0.31-2.15l0.66-0.4c1.42-0.85 2.32-0.56 3.71 0.26 0.1 0.06 0.19 0.12 0.29 0.18 1.37 0.81 4.21 2.65 5.73 3.73l3.52-2.11c-0.94-1.06-2.11-2.11-3.97-3.33l2.39-1.43" class="shp11"/>
   <path id="Fill 1175" d="m288 21.17c-0.01 4.35-2.87 8.7-8.57 12.03-11.48 6.69-30.14 6.69-41.69 0-5.82-3.36-8.72-7.78-8.7-12.19l-0.04 12.78c-0.01 4.41 2.89 8.83 8.71 12.2 11.55 6.69 30.21 6.69 41.69 0 5.7-3.32 8.56-7.67 8.57-12.03l0.04-12.78" class="shp4"/>
   <path id="Fill 1176" d="m288 21.17c-0.01 4.35-2.87 8.7-8.57 12.03-11.48 6.69-30.14 6.69-41.69 0-5.82-3.36-8.72-7.78-8.7-12.19l-0.04 12.78c-0.01 4.41 2.89 8.83 8.71 12.2 11.55 6.69 30.21 6.69 41.69 0 5.7-3.32 8.56-7.67 8.57-12.03l0.04-12.78" class="shp4"/>
   <path id="Fill 1177" d="m283 21.14c-0.01 3.61-2.38 7.21-7.11 9.97-9.53 5.54-25.03 5.54-34.62 0-4.83-2.79-7.24-6.45-7.23-10.11l-0.04 12.74c-0.01 3.66 2.4 7.32 7.23 10.1 9.59 5.55 25.09 5.55 34.62 0 4.74-2.75 7.11-6.35 7.12-9.96l0.04-12.74" class="shp5"/>
   <path id="Fill 1178" d="m283 21.14c-0.01 3.61-2.38 7.21-7.11 9.97-9.53 5.54-25.03 5.54-34.62 0-4.83-2.79-7.24-6.45-7.23-10.11l-0.04 12.74c-0.01 3.66 2.4 7.32 7.23 10.1 9.59 5.55 25.09 5.55 34.62 0 4.74-2.75 7.11-6.35 7.12-9.96l0.04-12.74" class="shp5"/>
   <path id="Fill 1179" d="m283 21.14c-0.01 3.61-2.38 7.21-7.11 9.97-9.53 5.54-25.03 5.54-34.62 0-4.83-2.79-7.24-6.45-7.23-10.11l-0.04 12.74c-0.01 3.66 2.4 7.32 7.23 10.1 9.59 5.55 25.09 5.55 34.62 0 4.74-2.75 7.11-6.35 7.12-9.96l0.04-12.74" class="shp5"/>
   <path id="Fill 1180" d="m283 21.14c-0.01 3.61-2.38 7.21-7.11 9.97-9.53 5.54-25.03 5.54-34.62 0-4.83-2.79-7.24-6.45-7.23-10.11l-0.04 12.74c-0.01 3.66 2.4 7.32 7.23 10.1 9.59 5.55 25.09 5.55 34.62 0 4.74-2.75 7.11-6.35 7.12-9.96l0.04-12.74" class="shp5"/>
   <path id="Fill 1181" d="m283 21.14c-0.01 3.61-2.38 7.21-7.11 9.97-9.53 5.54-25.03 5.54-34.62 0-4.83-2.79-7.24-6.45-7.23-10.11l-0.04 12.74c-0.01 3.66 2.4 7.32 7.23 10.1 9.59 5.55 25.09 5.55 34.62 0 4.74-2.75 7.11-6.35 7.12-9.96l0.04-12.74" class="shp5"/>
   <path id="Fill 1182" d="m288 21.17c-0.01 4.35-2.87 8.7-8.57 12.03-11.48 6.69-30.14 6.69-41.69 0-5.82-3.36-8.72-7.78-8.7-12.19l-0.04 12.78c-0.01 4.41 2.89 8.83 8.71 12.2 11.55 6.69 30.21 6.69 41.69 0 5.7-3.32 8.56-7.67 8.57-12.03l0.04-12.78" class="shp4"/>
   <path id="Fill 1183" d="m288 21.17c-0.01 4.35-2.87 8.7-8.57 12.03-11.48 6.69-30.14 6.69-41.69 0-5.82-3.36-8.72-7.78-8.7-12.19l-0.04 12.78c-0.01 4.41 2.89 8.83 8.71 12.2 11.55 6.69 30.21 6.69 41.69 0 5.7-3.32 8.56-7.67 8.57-12.03l0.04-12.78" class="shp4"/>
   <path id="Fill 1184" d="m288 21.17c-0.01 4.35-2.87 8.7-8.57 12.03-11.48 6.69-30.14 6.69-41.69 0-5.82-3.36-8.72-7.78-8.7-12.19l-0.04 12.78c-0.01 4.41 2.89 8.83 8.71 12.2 11.55 6.69 30.21 6.69 41.69 0 5.7-3.32 8.56-7.67 8.57-12.03l0.04-12.78" class="shp4"/>
   <path id="Fill 1185" d="m288 21.17c-0.01 4.35-2.87 8.7-8.57 12.03-11.48 6.69-30.14 6.69-41.69 0-5.82-3.36-8.72-7.78-8.7-12.19l-0.04 12.78c-0.01 4.41 2.89 8.83 8.71 12.2 11.55 6.69 30.21 6.69 41.69 0 5.7-3.32 8.56-7.67 8.57-12.03l0.04-12.78" class="shp4"/>
   <path id="Fill 1186" d="m250.83 29.39l-2.34 1.36-2.71-1.56 2.36-1.37c-2.25-1.39-2.87-1.97-4.15-3.39l3.59-2.08c1.07 0.71 3.66 2.43 6.32 3.97 1.2 0.69 2.48 1.08 3.7 0.37l0.81-0.47c1.02-0.59 1.29-1.14-0.08-1.93l-2.23-1.28c-5.09-2.93-1.31-5.57 0.24-6.47l1.75-1.02c4.07-2.36 7.87-1.67 11.11 0.09l2.44-1.42 2.71 1.56-2.46 1.43c1.92 1.22 3.12 2.27 4.1 3.33l-3.63 2.11c-1.56-1.08-4.5-2.91-5.91-3.73l-0.3-0.18c-1.43-0.82-2.36-1.12-3.83-0.26l-0.69 0.4c-1.22 0.71-1.19 1.28 0.32 2.15l2.3 1.33c4.22 2.43 1.63 4.94-0.63 6.25l-1.19 0.69c-4.8 2.79-8.76 1.77-11.6 0.13zm26.08-16.29c-9.41-5.47-24.58-5.47-33.93 0s-9.3 14.32 0.11 19.79 24.58 5.47 33.93 0 9.3-14.32-0.11-19.79z" class="shp10"/>
   <path id="Fill 1187" d="m288 21.17c-0.01 4.35-2.87 8.7-8.57 12.03-11.48 6.69-30.14 6.69-41.69 0-5.82-3.36-8.72-7.78-8.7-12.19l-0.04 12.78c-0.01 4.41 2.89 8.83 8.71 12.2 11.55 6.69 30.21 6.69 41.69 0 5.7-3.32 8.56-7.67 8.57-12.03l0.04-12.78" class="shp4"/>
   <path id="Fill 1188" d="m288 21.17c-0.01 4.35-2.87 8.7-8.57 12.03-11.48 6.69-30.14 6.69-41.69 0-5.82-3.36-8.72-7.78-8.7-12.19l-0.04 12.78c-0.01 4.41 2.89 8.83 8.71 12.2 11.55 6.69 30.21 6.69 41.69 0 5.7-3.32 8.56-7.67 8.57-12.03l0.04-12.78" class="shp4"/>
   <path id="Fill 1189" d="m288 21.17c-0.01 4.35-2.87 8.7-8.57 12.03-11.48 6.69-30.14 6.69-41.69 0-5.82-3.36-8.72-7.78-8.7-12.19l-0.04 12.78c-0.01 4.41 2.89 8.83 8.71 12.2 11.55 6.69 30.21 6.69 41.69 0 5.7-3.32 8.56-7.67 8.57-12.03l0.04-12.78" class="shp4"/>
   <path id="Fill 1190" d="m288 21.17c-0.01 4.35-2.87 8.7-8.57 12.03-11.48 6.69-30.14 6.69-41.69 0-5.82-3.36-8.72-7.78-8.7-12.19l-0.04 12.78c-0.01 4.41 2.89 8.83 8.71 12.2 11.55 6.69 30.21 6.69 41.69 0 5.7-3.32 8.56-7.67 8.57-12.03l0.04-12.78" class="shp4"/>
   <path id="Fill 1191" d="m288 21.17c-0.01 4.35-2.87 8.7-8.57 12.03-11.48 6.69-30.14 6.69-41.69 0-5.82-3.36-8.72-7.78-8.7-12.19l-0.04 12.78c-0.01 4.41 2.89 8.83 8.71 12.2 11.55 6.69 30.21 6.69 41.69 0 5.7-3.32 8.56-7.67 8.57-12.03l0.04-12.78" class="shp4"/>
   <path id="Fill 1192" d="m288 21.17c-0.01 4.35-2.87 8.7-8.57 12.03-11.48 6.69-30.14 6.69-41.69 0-5.82-3.36-8.72-7.78-8.7-12.19l-0.04 12.78c-0.01 4.41 2.89 8.83 8.71 12.2 11.55 6.69 30.21 6.69 41.69 0 5.7-3.32 8.56-7.67 8.57-12.03l0.04-12.78" class="shp4"/>
   <path id="Fill 1193" d="m288 21.17c-0.01 4.35-2.87 8.7-8.57 12.03-11.48 6.69-30.14 6.69-41.69 0-5.82-3.36-8.72-7.78-8.7-12.19l-0.04 12.78c-0.01 4.41 2.89 8.83 8.71 12.2 11.55 6.69 30.21 6.69 41.69 0 5.7-3.32 8.56-7.67 8.57-12.03l0.04-12.78" class="shp4"/>
   <path id="Fill 1194" d="m288 21.17c-0.01 4.35-2.87 8.7-8.57 12.03-11.48 6.69-30.14 6.69-41.69 0-5.82-3.36-8.72-7.78-8.7-12.19l-0.04 12.78c-0.01 4.41 2.89 8.83 8.71 12.2 11.55 6.69 30.21 6.69 41.69 0 5.7-3.32 8.56-7.67 8.57-12.03l0.04-12.78" class="shp4"/>
   <path id="Fill 1195" d="m288 20.17c-0.01 4.35-2.87 8.7-8.57 12.03-11.48 6.69-30.14 6.69-41.69 0-5.82-3.36-8.72-7.78-8.7-12.19l-0.04 12.78c-0.01 4.41 2.89 8.83 8.71 12.2 11.55 6.69 30.21 6.69 41.69 0 5.7-3.32 8.56-7.67 8.57-12.03l0.04-12.78" class="shp4"/>
   <path id="Fill 1196" d="m241.12 11.1c9.54-5.47 25.05-5.47 34.65 0s9.65 14.33 0.11 19.8-25.05 5.47-34.65 0-9.65-14.33-0.11-19.8zm38.17-2.12c-11.56-6.64-30.23-6.64-41.71 0-11.49 6.64-11.42 17.4 0.14 24.04s30.23 6.64 41.71 0c11.49-6.64 11.42-17.4-0.14-24.04z" class="shp11"/>
  </g>
 </g>
</svg>
