<?xml version="1.0" encoding="UTF-8" standalone="no"?>
<svg id="svg3422" xmlns:rdf="http://www.w3.org/1999/02/22-rdf-syntax-ns#" xmlns="http://www.w3.org/2000/svg" height="655" width="655" version="1.1" xmlns:cc="http://creativecommons.org/ns#" xmlns:dc="http://purl.org/dc/elements/1.1/" viewBox="0 0 655 655">
 <metadata id="metadata3452">
  <rdf:RDF>
   <cc:Work rdf:about="">
    <dc:format>image/svg+xml</dc:format>
    <dc:type rdf:resource="http://purl.org/dc/dcmitype/StillImage"/>
    <dc:title/>
   </cc:Work>
  </rdf:RDF>
 </metadata>
 <defs id="defs3424">
  <clipPath id="cp1" clipPathUnits="userSpaceOnUse">
   <path id="path3427" d="m571 879h655v-655h-655z"/>
  </clipPath>
 </defs>
 <style id="style3429">tspan { white-space:pre }
		.shp0 { fill: #f7fafb } 
		.shp1 { fill: #edf2f4 }</style>
 <g id="Group 26" transform="translate(-571,-224)">
  <path id="Clip 10" fill="#f7fafb" d="m571 879h655v-655h-655v655z"/>
  <g id="Mask by Clip 10" fill="#edf2f4" clip-path="url(#cp1)">
   <path id="Fill 9" d="m881 767.46c-23.3-13.49-46.6-26.97-69.9-40.46l-126.1 73.54 69.9 40.46 126.1-73.54z"/>
   <path id="Fill 11" d="m1143 845.44c-32.5-18.81-64.9-37.63-97.4-56.44-58.51 34.19-117.06 68.37-175.6 102.56 32.457 18.813 64.913 37.627 97.37 56.44 58.543-34.187 117.09-68.373 175.63-102.56z"/>
   <path id="Fill 12" d="m720 866.46c-23.3-13.49-46.6-26.97-69.9-40.46l-126.1 73.54 69.9 40.46 126.1-73.54z"/>
   <path id="Fill 13" d="m1241 368.46l-69.9-40.46-126.1 73.54 69.9 40.46 126.1-73.54z"/>
   <path id="Fill 14" d="m1392 278.46l-69.9-40.46-126.1 73.54 69.9 40.46 126.1-73.54z"/>
   <path id="Fill 15" d="m1468 130.21c-14.943-8.7367-29.887-17.473-44.83-26.21l-208.17 119.79c14.943 8.7367 29.887 17.473 44.83 26.21l208.17-119.79z"/>
   <path id="Fill 16" d="m1225 518.02l203.94 119.98 113.06-66.02-203.94-119.98-113.06 66.02z"/>
   <path id="Fill 17" d="m1052 661.02l203.94 119.98 113.06-66.02-203.94-119.98-113.06 66.02z"/>
   <path id="Fill 18" d="m474 521.01c45.46 26.66 90.93 53.33 136.39 79.99 25.2-14.67 50.41-29.34 75.61-44.01-45.46-26.66-90.93-53.33-136.39-79.99-25.2 14.67-50.41 29.34-75.61 44.01z"/>
   <path id="Fill 19" d="m488 656.01c45.46 26.66 90.93 53.33 136.39 79.99 25.2-14.67 50.41-29.34 75.61-44.01-45.46-26.66-90.93-53.33-136.39-79.99-25.2 14.67-50.41 29.34-75.61 44.01z"/>
   <path id="Fill 20" d="m387 715.01c45.46 26.66 90.93 53.33 136.39 79.99 25.2-14.67 50.41-29.34 75.61-44.01-45.46-26.66-90.93-53.33-136.39-79.99-25.2 14.67-50.41 29.34-75.61 44.01z"/>
   <path id="Fill 21" d="m1001 411.14c-60.75-34.71-121.49-69.43-182.24-104.14-65.59 38.29-131.17 76.57-196.76 114.86 60.75 34.71 121.49 69.43 182.24 104.14 65.59-38.29 131.17-76.57 196.76-114.86z"/>
   <path id="Fill 22" d="m1236 269.14c-60.7-34.71-121.5-69.43-182.2-104.14-65.63 38.29-131.21 76.57-196.8 114.86 60.75 34.71 121.49 69.43 182.2 104.14 65.6-38.29 131.2-76.57 196.8-114.86z"/>
   <path id="Fill 23" d="m963 129.89c-36.26-21.3-72.52-42.593-108.78-63.89-65.41 38.7-130.81 77.41-196.22 116.11 36.26 21.3 72.52 42.59 108.78 63.89 65.41-38.7 130.81-77.41 196.22-116.11z"/>
   <path id="Fill 24" d="m1469.3 688.01c-74.058 43.027-148.12 86.053-222.18 129.07-79.762-46.026-159.52-92.06-239.28-138.09 30.351-19.5 37.936-65.505 9.1358-89.781-20.809-17.237 32.25-26.594 44.697-40.384 29.224-17.835 43.725-34.531 71.767-7.2197 98.198 56.673 196.4 113.34 294.59 170.02m102.15 268.82c-84.366-48.685-168.73-97.37-253.09-146.07 98.954-57.48 197.89-114.99 296.85-172.46 85.524 49.082 170.61 98.999 256.38 147.62 31.755 12.597 41.233-23.58 7.5698-29.761-78-45.05-156.1-90.11-234.2-135.16 62.813-36.496 125.63-72.991 188.45-109.47 15.931-31.389-39.502-20.523-52.614-4.142-93.7 54.6-187.8 108.86-281.7 163.33-108.2-62.47-216.4-124.93-324.6-187.39 152.56-89.177 305.2-178.21 458.45-266.2 16.747-30.552-39.775-21.475-51.86-4.6805-188.4 107.52-374.5 218.77-562.36 326.99-53.86-21.65-116.51-21.97-170.31 0.08-79.41-46.33-159.76-91.08-238.47-138.6 231.85-134.64 463.54-269.51 695.74-403.68 16.8-29.931-38.6-21.948-50.8-5.286-225.48 130.28-450.48 261.45-675.74 392.19-85.48-49.17-170.65-98.91-256.38-147.6-24.85-12.4-45.63 18.88-13.44 26.36 80.01 46.19 160.04 92.36 240.06 138.55-167.36 97.23-334.7 194.47-502.07 291.68-15.925 31.39 39.51 20.51 52.624 4.14 159.8-92.85 319.61-185.68 479.41-278.52 79.792 46.056 159.58 92.11 239.38 138.16-26.948 17.181-37.762 56.803-15.955 82.278 36.344 23.951-25.111 33.444-42.199 50.3-153.43 89.15-306.88 178.28-460.32 267.42-15.935 31.378 39.506 20.523 52.614 4.142 165.44-96.13 330.88-192.23 496.32-288.35 53.768 21.983 116.48 21.798 170.29 0.06 79.735 46.014 159.47 92.023 239.2 138.05-172.59 100.28-345.19 200.54-517.78 300.81-15.928 31.384 39.509 20.518 52.617 4.1392 165.04-95.9 330.08-191.79 495.18-287.66 85.519 49.104 170.65 98.953 256.4 147.62 11.341 6.53 46.777-2.7138 26.464-18.909z"/>
   <path id="Fill 25" d="m1068 736.33c-9.9-5.78-19.8-11.55-29.8-17.33-116.03 66.79-232.12 133.59-348.2 200.38 13.175 3.3684 26.767 10.85 39.686 11.696 112.77-64.92 225.54-129.83 338.31-194.75z"/>
  </g>
 </g>
</svg>
