<svg xmlns="http://www.w3.org/2000/svg" viewBox="0 0 191 249" width="191" height="249">
	<style>
		tspan { white-space:pre }
		.shp0 { fill: #7388ff } 
		.shp1 { fill: #4e64db } 
		.shp2 { fill: #798eff } 
		.shp3 { fill: #a0aeff } 
	</style>
	<g id="iso">
		<path id="Fill 255" class="shp0" d="M105.38,31.61c0.03,0 0.06,0.01 0.09,0.01c0.19,0.02 0.4,0.04 0.63,0.06c0.02,0 0.03,0 0.04,0c0.03,0 0.06,0.01 0.09,0.01c0.14,0.01 0.29,0.03 0.44,0.04c0.05,0 0.1,0.01 0.15,0.01c0.2,0.02 0.42,0.03 0.64,0.05c0.03,0 0.06,0 0.08,0.01c0.2,0.01 0.4,0.03 0.62,0.04c0.08,0.01 0.15,0.01 0.23,0.01c0.19,0.01 0.4,0.02 0.6,0.03c0.07,0 0.13,0.01 0.2,0.01c0.27,0.01 0.56,0.03 0.85,0.04c0.06,0 0.13,0 0.19,0.01c0.24,0.01 0.48,0.02 0.73,0.02c0.1,0 0.19,0 0.29,0.01c0.27,0.01 0.54,0.01 0.83,0.02c0.06,0 0.12,0 0.18,0c0.34,0 0.69,0.01 1.06,0.01c0.03,0 0.06,0 0.08,0c0.1,0 0.21,0 0.31,0c0.17,0 0.34,0 0.52,0c0.14,0 0.29,0 0.44,0c0.18,0 0.35,0 0.53,-0.01c0.16,0 0.31,0 0.47,-0.01c0.18,0 0.36,-0.01 0.54,-0.01c0.16,0 0.32,-0.01 0.49,-0.01c0.19,0 0.38,-0.01 0.57,-0.02c0.17,0 0.33,-0.01 0.5,-0.02c0.19,-0.01 0.39,-0.01 0.58,-0.02c0.18,-0.01 0.35,-0.02 0.53,-0.02c0.2,-0.01 0.4,-0.02 0.6,-0.03c0.18,-0.01 0.37,-0.02 0.55,-0.03c0.2,-0.01 0.41,-0.02 0.62,-0.04c0.19,-0.01 0.38,-0.02 0.58,-0.03c0.21,-0.01 0.42,-0.03 0.63,-0.04c0.11,-0.01 0.22,-0.01 0.34,-0.02c0.05,0 0.11,-0.01 0.16,-0.01c0.6,-0.04 1.21,-0.09 1.83,-0.15c0.1,-0.01 0.21,-0.02 0.32,-0.03c0.64,-0.06 1.28,-0.12 1.95,-0.19c0.03,0 0.06,-0.01 0.09,-0.01c0.68,-0.07 1.37,-0.15 2.07,-0.23c0.13,-0.02 0.25,-0.03 0.38,-0.05c0.69,-0.08 1.38,-0.17 2.09,-0.27c0.06,-0.01 0.11,-0.01 0.17,-0.02c0.09,-0.01 0.19,-0.03 0.28,-0.04c0.52,-0.07 1.04,-0.15 1.57,-0.23c0.13,-0.02 0.26,-0.04 0.39,-0.06c0.63,-0.1 1.28,-0.2 1.93,-0.31c0.15,-0.03 0.31,-0.05 0.46,-0.08c0.54,-0.09 1.08,-0.19 1.63,-0.28c0.17,-0.03 0.33,-0.06 0.5,-0.09c0.68,-0.12 1.36,-0.25 2.05,-0.39c0.03,-0.01 0.06,-0.01 0.09,-0.02c0.12,-0.02 0.25,-0.05 0.37,-0.07c0.47,-0.1 0.95,-0.19 1.44,-0.29c0.22,-0.05 0.43,-0.09 0.65,-0.14c0.44,-0.1 0.89,-0.19 1.35,-0.3c0.21,-0.05 0.43,-0.09 0.65,-0.14c0.54,-0.12 1.09,-0.25 1.64,-0.38c0.12,-0.03 0.24,-0.06 0.36,-0.09c0.67,-0.16 1.34,-0.33 2.02,-0.5c0.05,-0.01 0.09,-0.02 0.14,-0.03c0.05,-0.01 0.11,-0.03 0.16,-0.04c1.22,-0.31 2.46,-0.64 3.71,-0.99c0.13,-0.04 0.27,-0.08 0.4,-0.11c1.24,-0.35 2.5,-0.72 3.78,-1.11c0.07,-0.02 0.15,-0.04 0.22,-0.07c0.06,-0.02 0.11,-0.04 0.17,-0.05c1.16,-0.36 2.32,-0.73 3.51,-1.12c0.14,-0.05 0.27,-0.09 0.41,-0.14c1.19,-0.4 2.4,-0.81 3.62,-1.25c0.08,-0.03 0.17,-0.05 0.25,-0.08c0.05,-0.02 0.1,-0.04 0.16,-0.06c1.11,-0.4 2.23,-0.81 3.37,-1.24c0.17,-0.07 0.34,-0.13 0.52,-0.2c1.12,-0.43 2.26,-0.88 3.4,-1.34c0.1,-0.04 0.19,-0.07 0.29,-0.11c0.09,-0.04 0.19,-0.08 0.29,-0.12c1.07,-0.44 2.15,-0.89 3.23,-1.35c0.17,-0.07 0.35,-0.15 0.52,-0.22c1.14,-0.49 2.28,-0.99 3.43,-1.52c0.01,-0.01 0.02,-0.01 0.04,-0.02c0.04,-0.02 0.08,-0.04 0.12,-0.06c1.04,-0.47 2.09,-0.96 3.14,-1.46c0.2,-0.09 0.4,-0.19 0.59,-0.28c1.06,-0.51 2.13,-1.03 3.2,-1.57c0.09,-0.05 0.18,-0.09 0.27,-0.13c0.47,-0.24 0.95,-0.48 1.42,-0.72l-20.23,-11.94c-0.57,0.29 -1.13,0.57 -1.69,0.85c-1.07,0.54 -2.14,1.06 -3.2,1.57c-0.2,0.1 -0.39,0.19 -0.59,0.28c-1.06,0.5 -2.11,0.99 -3.15,1.47c-0.05,0.02 -0.1,0.05 -0.16,0.07c-1.15,0.52 -2.29,1.02 -3.43,1.51c-0.18,0.08 -0.35,0.15 -0.53,0.23c-1.09,0.47 -2.16,0.92 -3.23,1.35c-0.19,0.08 -0.38,0.16 -0.57,0.23c-1.14,0.46 -2.28,0.91 -3.4,1.34c-0.17,0.07 -0.34,0.13 -0.52,0.2c-1.13,0.43 -2.26,0.85 -3.37,1.24c-0.14,0.05 -0.27,0.1 -0.4,0.14c-1.22,0.43 -2.43,0.85 -3.63,1.25c-0.14,0.05 -0.28,0.09 -0.41,0.14c-1.18,0.39 -2.35,0.77 -3.51,1.12c-0.13,0.04 -0.26,0.08 -0.39,0.12c-1.28,0.39 -2.54,0.76 -3.78,1.11c-0.13,0.04 -0.27,0.08 -0.4,0.11c-1.26,0.35 -2.5,0.68 -3.71,0.99c-0.1,0.03 -0.21,0.05 -0.31,0.08c-0.68,0.17 -1.35,0.34 -2.02,0.5c-0.12,0.03 -0.24,0.06 -0.36,0.08c-0.55,0.13 -1.1,0.26 -1.64,0.38c-0.22,0.05 -0.43,0.1 -0.64,0.14c-0.45,0.1 -0.9,0.2 -1.35,0.3c-0.22,0.05 -0.43,0.09 -0.65,0.14c-0.48,0.1 -0.96,0.2 -1.44,0.29c-0.15,0.03 -0.31,0.06 -0.46,0.09c-0.69,0.14 -1.38,0.27 -2.05,0.39c-0.17,0.03 -0.33,0.06 -0.5,0.09c-0.55,0.1 -1.09,0.19 -1.63,0.29c-0.16,0.03 -0.31,0.05 -0.46,0.08c-0.65,0.11 -1.29,0.21 -1.93,0.31c-0.14,0.02 -0.27,0.04 -0.4,0.06c-0.52,0.08 -1.04,0.15 -1.55,0.22c-0.16,0.02 -0.31,0.04 -0.47,0.06c-0.71,0.1 -1.4,0.19 -2.08,0.27c-0.13,0.02 -0.26,0.03 -0.39,0.05c-0.7,0.08 -1.39,0.16 -2.06,0.23c-0.03,0 -0.06,0.01 -0.09,0.01c-0.66,0.07 -1.31,0.13 -1.94,0.19c-0.11,0.01 -0.22,0.02 -0.33,0.03c-0.62,0.05 -1.23,0.1 -1.83,0.14c-0.17,0.01 -0.33,0.02 -0.5,0.04c-0.21,0.01 -0.42,0.03 -0.63,0.04c-0.19,0.01 -0.39,0.02 -0.58,0.03c-0.21,0.01 -0.41,0.02 -0.62,0.04c-0.19,0.01 -0.37,0.02 -0.55,0.03c-0.2,0.01 -0.41,0.02 -0.61,0.03c-0.18,0.01 -0.35,0.02 -0.53,0.02c-0.19,0.01 -0.39,0.01 -0.58,0.02c-0.17,0.01 -0.34,0.01 -0.5,0.02c-0.19,0.01 -0.38,0.01 -0.57,0.02c-0.16,0 -0.33,0.01 -0.49,0.01c-0.18,0 -0.36,0.01 -0.54,0.01c-0.16,0 -0.32,0.01 -0.47,0.01c-0.18,0 -0.36,0 -0.53,0c-0.15,0 -0.29,0 -0.44,0c-0.18,0 -0.35,0 -0.52,0c-0.13,0 -0.27,0 -0.39,0c-0.36,0 -0.71,0 -1.06,-0.01c-0.06,0 -0.12,0 -0.18,0c-0.28,0 -0.56,-0.01 -0.83,-0.02c-0.1,0 -0.19,-0.01 -0.29,-0.01c-0.25,-0.01 -0.5,-0.01 -0.73,-0.02c-0.06,0 -0.13,0 -0.19,-0.01c-0.29,-0.01 -0.58,-0.02 -0.85,-0.04c-0.07,0 -0.13,-0.01 -0.2,-0.01c-0.2,-0.01 -0.41,-0.02 -0.6,-0.03c-0.08,0 -0.16,-0.01 -0.23,-0.01c-0.21,-0.01 -0.42,-0.03 -0.62,-0.04c-0.03,0 -0.06,0 -0.08,0c-0.23,-0.02 -0.44,-0.03 -0.64,-0.05c-0.05,0 -0.1,-0.01 -0.15,-0.01c-0.15,-0.01 -0.3,-0.02 -0.44,-0.04c-0.04,0 -0.09,-0.01 -0.13,-0.01c-0.23,-0.02 -0.44,-0.04 -0.63,-0.06c-0.03,0 -0.06,-0.01 -0.09,-0.01c-0.18,-0.02 -0.34,-0.04 -0.48,-0.05c-0.03,0 -0.05,0 -0.07,-0.01c-0.13,-0.02 -0.25,-0.03 -0.34,-0.04c-0.02,0 -0.03,0 -0.05,-0.01c-0.08,-0.01 -0.16,-0.02 -0.2,-0.03l20.23,11.94c0.04,0.01 0.11,0.02 0.2,0.03c0.02,0 0.03,0 0.05,0.01c0.09,0.01 0.21,0.03 0.34,0.04c0.03,0 0.05,0.01 0.07,0.01c0.14,0.02 0.3,0.03 0.48,0.05" />
		<path id="Fill 256" class="shp1" d="M0.11,119.6c0.01,0.3 0.02,0.6 0.03,0.9c0.02,0.43 0.03,0.86 0.05,1.3c0.01,0.19 0.01,0.38 0.02,0.57c0,0.12 0.01,0.26 0.02,0.38c0.02,0.38 0.03,0.76 0.05,1.14c0.02,0.35 0.03,0.7 0.05,1.05c0.02,0.39 0.04,0.78 0.07,1.18c0.02,0.35 0.04,0.71 0.06,1.07c0.02,0.4 0.05,0.81 0.08,1.22c0.02,0.36 0.05,0.72 0.07,1.08c0.03,0.41 0.06,0.83 0.09,1.24c0.02,0.28 0.04,0.56 0.06,0.84c0.01,0.09 0.02,0.19 0.02,0.28c0.03,0.35 0.06,0.71 0.09,1.06c0.04,0.42 0.07,0.84 0.11,1.26c0.03,0.36 0.07,0.73 0.11,1.09c0.04,0.42 0.08,0.84 0.13,1.27c0.04,0.38 0.08,0.75 0.12,1.13c0.05,0.42 0.09,0.84 0.14,1.27c0.04,0.38 0.09,0.77 0.13,1.16c0.04,0.29 0.07,0.57 0.1,0.85c0.01,0.08 0.02,0.17 0.03,0.25c0.17,1.34 0.35,2.7 0.55,4.06c0.03,0.23 0.07,0.45 0.1,0.68c0.2,1.37 0.42,2.75 0.65,4.14c0.02,0.1 0.03,0.2 0.05,0.29c0.02,0.12 0.05,0.25 0.07,0.38c0.24,1.38 0.49,2.76 0.76,4.16c0.03,0.16 0.06,0.32 0.1,0.48c0.29,1.44 0.59,2.89 0.91,4.34c0.01,0.03 0.01,0.05 0.02,0.08c0,0.01 0,0.02 0.01,0.02c0.32,1.44 0.67,2.87 1.03,4.31c0.05,0.2 0.1,0.4 0.15,0.6c0.35,1.38 0.73,2.76 1.12,4.14c0.04,0.13 0.07,0.27 0.11,0.4c0.06,0.22 0.13,0.43 0.19,0.65c0.11,0.36 0.21,0.73 0.32,1.1c0.15,0.49 0.3,0.98 0.45,1.47c0.11,0.36 0.23,0.72 0.34,1.09c0.16,0.5 0.32,0.99 0.49,1.48c0.12,0.35 0.23,0.71 0.36,1.06c0.17,0.51 0.35,1.02 0.53,1.52c0.12,0.33 0.23,0.67 0.36,1c0.03,0.08 0.06,0.17 0.09,0.25c0.14,0.38 0.29,0.76 0.43,1.14c0.15,0.4 0.3,0.8 0.45,1.2c0.18,0.47 0.37,0.93 0.56,1.4c0.16,0.39 0.31,0.78 0.47,1.17c0.19,0.48 0.4,0.95 0.6,1.42c0.16,0.37 0.32,0.75 0.48,1.12c0.21,0.49 0.44,0.97 0.66,1.46c0.16,0.36 0.32,0.71 0.48,1.07c0.02,0.03 0.03,0.06 0.05,0.1c0.09,0.19 0.18,0.38 0.27,0.56c0.33,0.7 0.67,1.4 1.02,2.09c0.16,0.33 0.33,0.65 0.5,0.98c0.3,0.58 0.6,1.16 0.91,1.74c0.19,0.35 0.38,0.7 0.57,1.05c0.3,0.55 0.61,1.1 0.92,1.64c0.2,0.35 0.41,0.7 0.61,1.05c0.32,0.55 0.66,1.09 0.99,1.64c0.14,0.23 0.27,0.46 0.41,0.68c0.08,0.13 0.17,0.26 0.25,0.39c0.17,0.26 0.34,0.53 0.51,0.79c0.31,0.48 0.62,0.95 0.94,1.42c0.18,0.27 0.36,0.53 0.55,0.8c0.33,0.48 0.67,0.96 1.01,1.43c0.17,0.24 0.34,0.47 0.51,0.71c0.45,0.61 0.9,1.21 1.37,1.81c0.07,0.09 0.14,0.18 0.21,0.27c0.54,0.68 1.08,1.36 1.64,2.03c0.17,0.2 0.34,0.4 0.51,0.59c0.4,0.47 0.8,0.93 1.21,1.4c0.21,0.24 0.42,0.47 0.64,0.71c0.38,0.42 0.77,0.84 1.17,1.25c0.22,0.24 0.45,0.47 0.67,0.7c0.41,0.42 0.84,0.84 1.26,1.26c0.21,0.2 0.41,0.41 0.62,0.61c0.59,0.56 1.18,1.12 1.79,1.66c0.05,0.04 0.1,0.09 0.14,0.13c0.66,0.59 1.33,1.16 2.01,1.73c0.21,0.18 0.43,0.35 0.64,0.52c0.48,0.39 0.96,0.78 1.45,1.16c0.26,0.2 0.52,0.4 0.78,0.59c0.47,0.35 0.94,0.7 1.41,1.04c0.27,0.19 0.54,0.38 0.81,0.58c0.51,0.35 1.02,0.7 1.54,1.04c0.24,0.16 0.48,0.32 0.73,0.48c0.77,0.49 1.54,0.97 2.33,1.44l20.39,12.02c-0.79,-0.47 -1.57,-0.95 -2.33,-1.44c-0.24,-0.16 -0.48,-0.32 -0.73,-0.48c-0.52,-0.34 -1.04,-0.69 -1.54,-1.04c-0.27,-0.19 -0.54,-0.38 -0.81,-0.58c-0.47,-0.34 -0.94,-0.68 -1.41,-1.03c-0.26,-0.2 -0.52,-0.39 -0.78,-0.6c-0.49,-0.38 -0.97,-0.77 -1.45,-1.16c-0.21,-0.17 -0.43,-0.34 -0.64,-0.52c-0.68,-0.57 -1.35,-1.14 -2.01,-1.73c-0.05,-0.04 -0.1,-0.09 -0.15,-0.14c-0.61,-0.55 -1.2,-1.1 -1.79,-1.66c-0.21,-0.2 -0.41,-0.4 -0.62,-0.61c-0.42,-0.42 -0.85,-0.84 -1.26,-1.26c-0.23,-0.23 -0.45,-0.47 -0.67,-0.7c-0.39,-0.41 -0.78,-0.83 -1.16,-1.25c-0.21,-0.24 -0.43,-0.47 -0.64,-0.71c-0.41,-0.46 -0.81,-0.92 -1.21,-1.39c-0.17,-0.2 -0.34,-0.4 -0.51,-0.6c-0.56,-0.67 -1.1,-1.34 -1.64,-2.02c-0.07,-0.09 -0.14,-0.19 -0.22,-0.28c-0.46,-0.59 -0.91,-1.19 -1.36,-1.8c-0.17,-0.24 -0.34,-0.47 -0.51,-0.71c-0.34,-0.47 -0.68,-0.95 -1.01,-1.43c-0.18,-0.27 -0.37,-0.53 -0.55,-0.8c-0.32,-0.47 -0.63,-0.94 -0.94,-1.41c-0.17,-0.26 -0.35,-0.53 -0.51,-0.79c-0.22,-0.35 -0.44,-0.71 -0.66,-1.06c-0.34,-0.55 -0.67,-1.09 -1,-1.64c-0.21,-0.35 -0.41,-0.7 -0.61,-1.05c-0.31,-0.55 -0.62,-1.1 -0.93,-1.65c-0.19,-0.35 -0.38,-0.7 -0.57,-1.05c-0.31,-0.58 -0.61,-1.16 -0.91,-1.74c-0.17,-0.33 -0.34,-0.65 -0.5,-0.98c-0.35,-0.7 -0.69,-1.4 -1.02,-2.1c-0.11,-0.22 -0.21,-0.43 -0.31,-0.65c-0.17,-0.36 -0.33,-0.72 -0.49,-1.08c-0.22,-0.48 -0.44,-0.96 -0.65,-1.45c-0.16,-0.37 -0.32,-0.75 -0.48,-1.13c-0.2,-0.47 -0.41,-0.94 -0.6,-1.42c-0.16,-0.39 -0.31,-0.78 -0.47,-1.17c-0.19,-0.46 -0.38,-0.93 -0.56,-1.4c-0.15,-0.4 -0.3,-0.8 -0.45,-1.2c-0.17,-0.47 -0.35,-0.93 -0.52,-1.4c-0.12,-0.33 -0.24,-0.67 -0.36,-1c-0.18,-0.51 -0.36,-1.02 -0.53,-1.52c-0.12,-0.35 -0.24,-0.71 -0.36,-1.06c-0.16,-0.49 -0.33,-0.99 -0.49,-1.48c-0.12,-0.36 -0.23,-0.72 -0.34,-1.09c-0.15,-0.49 -0.3,-0.97 -0.45,-1.46c-0.11,-0.36 -0.22,-0.73 -0.33,-1.1c-0.1,-0.35 -0.2,-0.7 -0.3,-1.05c-0.4,-1.38 -0.77,-2.76 -1.12,-4.14c-0.05,-0.2 -0.1,-0.4 -0.15,-0.6c-0.37,-1.44 -0.71,-2.88 -1.03,-4.32c-0.01,-0.03 -0.01,-0.07 -0.02,-0.1c-0.33,-1.46 -0.63,-2.91 -0.91,-4.35c-0.03,-0.16 -0.07,-0.32 -0.1,-0.47c-0.27,-1.39 -0.53,-2.78 -0.76,-4.16c-0.04,-0.23 -0.08,-0.45 -0.12,-0.67c-0.23,-1.39 -0.45,-2.77 -0.65,-4.14c-0.03,-0.23 -0.07,-0.46 -0.1,-0.68c-0.2,-1.37 -0.38,-2.72 -0.55,-4.06c-0.05,-0.37 -0.09,-0.73 -0.13,-1.1c-0.05,-0.39 -0.09,-0.78 -0.14,-1.17c-0.05,-0.42 -0.09,-0.85 -0.14,-1.27c-0.04,-0.38 -0.08,-0.76 -0.12,-1.13c-0.04,-0.42 -0.08,-0.84 -0.13,-1.26c-0.04,-0.37 -0.07,-0.74 -0.11,-1.11c-0.04,-0.41 -0.07,-0.83 -0.11,-1.24c-0.03,-0.36 -0.06,-0.73 -0.09,-1.08c-0.03,-0.37 -0.06,-0.74 -0.09,-1.11c-0.03,-0.42 -0.07,-0.84 -0.09,-1.26c-0.03,-0.36 -0.05,-0.72 -0.07,-1.08c-0.03,-0.41 -0.06,-0.81 -0.08,-1.22c-0.02,-0.36 -0.04,-0.71 -0.06,-1.07c-0.02,-0.39 -0.05,-0.79 -0.07,-1.17c-0.02,-0.35 -0.04,-0.7 -0.05,-1.05c-0.02,-0.38 -0.04,-0.76 -0.05,-1.14c-0.01,-0.32 -0.03,-0.64 -0.04,-0.96c-0.02,-0.44 -0.03,-0.87 -0.05,-1.3c-0.01,-0.3 -0.02,-0.6 -0.03,-0.9c-0.01,-0.42 -0.02,-0.85 -0.03,-1.26c-0.01,-0.29 -0.01,-0.58 -0.02,-0.86c-0.01,-0.43 -0.02,-0.84 -0.02,-1.26c0,-0.26 -0.01,-0.52 -0.01,-0.78c0,-0.44 -0.01,-0.88 -0.01,-1.31c0,-0.21 0,-0.43 0,-0.64c0,-0.68 0,-1.35 0,-2c0,-0.15 0,-0.29 0,-0.43c0,-0.5 0.01,-0.99 0.01,-1.47c0,-0.21 0.01,-0.42 0.01,-0.63c0.01,-0.41 0.01,-0.81 0.02,-1.21c0,-0.19 0.01,-0.39 0.01,-0.58c0.01,-0.43 0.02,-0.85 0.03,-1.25c0,-0.14 0.01,-0.28 0.01,-0.41c0,-0.09 0.01,-0.18 0.01,-0.27c0.01,-0.32 0.02,-0.64 0.03,-0.94c0,-0.11 0.01,-0.21 0.01,-0.32c0.01,-0.36 0.03,-0.71 0.04,-1.05c0,-0.01 0,-0.02 0,-0.03c0.02,-0.35 0.03,-0.68 0.05,-1c0.01,-0.1 0.01,-0.19 0.01,-0.29c0.01,-0.24 0.02,-0.47 0.04,-0.69c0,-0.07 0.01,-0.15 0.01,-0.22c0.02,-0.28 0.03,-0.54 0.05,-0.79c0,-0.07 0.01,-0.14 0.01,-0.21c0.01,-0.16 0.02,-0.32 0.03,-0.47c0.01,-0.17 0.02,-0.33 0.03,-0.49c0.01,-0.09 0.01,-0.19 0.02,-0.28c0.01,-0.14 0.02,-0.27 0.03,-0.4c0,-0.08 0.01,-0.16 0.02,-0.23c0.01,-0.12 0.02,-0.23 0.02,-0.33c0,-0.05 0.01,-0.11 0.01,-0.16c0.01,-0.13 0.02,-0.25 0.03,-0.34l-20.39,-12.02c-0.01,0.09 -0.02,0.21 -0.03,0.34c0,0.05 -0.01,0.11 -0.01,0.16c-0.01,0.1 -0.02,0.21 -0.02,0.33c-0.01,0.07 -0.01,0.15 -0.02,0.23c-0.01,0.13 -0.02,0.26 -0.03,0.4c-0.01,0.09 -0.01,0.19 -0.02,0.28c-0.01,0.15 -0.02,0.3 -0.03,0.47c0,0.05 -0.01,0.1 -0.01,0.15c-0.01,0.12 -0.02,0.25 -0.02,0.37c0,0.05 -0.01,0.1 -0.01,0.16c-0.02,0.26 -0.03,0.53 -0.05,0.82c0,0.06 -0.01,0.12 -0.01,0.18c-0.01,0.24 -0.03,0.48 -0.04,0.74c0,0.08 -0.01,0.17 -0.01,0.25c-0.02,0.32 -0.03,0.66 -0.05,1.01c0,0.01 0,0.02 0,0.03c-0.01,0.34 -0.03,0.69 -0.04,1.05c0,0.1 -0.01,0.21 -0.01,0.32c-0.01,0.31 -0.02,0.62 -0.03,0.94c0,0.09 -0.01,0.18 -0.01,0.28c0,0.04 0,0.07 0,0.11c0,0.09 0,0.2 -0.01,0.3c-0.01,0.41 -0.02,0.83 -0.03,1.26c0,0.19 -0.01,0.38 -0.01,0.58c-0.01,0.39 -0.02,0.8 -0.02,1.21c0,0.21 -0.01,0.42 -0.01,0.63c-0.01,0.48 -0.01,0.97 -0.01,1.47c0,0.15 0,0.29 0,0.43c0,0.65 0,1.32 0,2c0,0.04 0,0.07 0,0.11c0,0.17 0,0.35 0,0.53c0,0.43 0.01,0.86 0.01,1.31c0,0.26 0.01,0.52 0.01,0.78c0.01,0.41 0.01,0.83 0.02,1.26c0.01,0.28 0.01,0.57 0.02,0.86c0.01,0.42 0.02,0.84 0.03,1.26" />
		<path id="Fill 257" class="shp2" d="M19.55,109.79c-0.54,6.73 -10.73,134.54 85.93,139.21c96.33,-116.29 85.45,-231.91 84.87,-238c-48.38,24.4 -83.64,19.69 -85.49,19.44c-1.85,2.39 -36.96,47.8 -85.32,79.35" />
		<path id="Fill 258" class="shp0" d="M0,98.15l20.26,11.85c1.73,-1.13 3.44,-2.29 5.13,-3.45c0.07,-0.05 0.13,-0.09 0.2,-0.14c0.11,-0.08 0.22,-0.15 0.33,-0.23c1.19,-0.82 2.37,-1.65 3.53,-2.48c0.16,-0.11 0.31,-0.22 0.47,-0.34c1.21,-0.87 2.41,-1.74 3.6,-2.62c0.02,-0.01 0.04,-0.03 0.06,-0.04c0.04,-0.03 0.09,-0.07 0.13,-0.1c1.37,-1.01 2.72,-2.03 4.06,-3.06c0.07,-0.06 0.15,-0.11 0.22,-0.17c1.32,-1.02 2.63,-2.04 3.92,-3.06c0.03,-0.02 0.06,-0.04 0.08,-0.06c0.05,-0.04 0.1,-0.09 0.16,-0.13c1.4,-1.11 2.77,-2.22 4.13,-3.34c0.14,-0.11 0.27,-0.23 0.41,-0.34c1.31,-1.08 2.6,-2.16 3.88,-3.24c0.07,-0.06 0.15,-0.12 0.22,-0.19c0.06,-0.05 0.12,-0.1 0.18,-0.16c1.49,-1.27 2.96,-2.53 4.4,-3.8c0,0 0.01,-0.01 0.01,-0.01c1.44,-1.27 2.86,-2.54 4.25,-3.8c0.06,-0.05 0.11,-0.1 0.17,-0.15c0.12,-0.11 0.24,-0.22 0.37,-0.34c0.54,-0.49 1.07,-0.98 1.6,-1.46c0.18,-0.17 0.37,-0.34 0.55,-0.51c0.7,-0.64 1.39,-1.29 2.07,-1.92c0.12,-0.11 0.23,-0.22 0.35,-0.33c0.57,-0.54 1.14,-1.07 1.7,-1.61c0.21,-0.2 0.41,-0.39 0.62,-0.59c0.5,-0.48 1,-0.96 1.49,-1.43c0.12,-0.11 0.24,-0.23 0.36,-0.35c0.05,-0.05 0.1,-0.1 0.15,-0.15c0.69,-0.66 1.37,-1.33 2.04,-1.98c0.14,-0.14 0.28,-0.27 0.42,-0.41c0.55,-0.54 1.1,-1.09 1.64,-1.62c0.17,-0.17 0.35,-0.34 0.52,-0.52c0.65,-0.65 1.3,-1.3 1.93,-1.94c0.05,-0.05 0.1,-0.1 0.15,-0.15c0.59,-0.6 1.17,-1.19 1.75,-1.78c0.08,-0.08 0.16,-0.16 0.24,-0.25c0.08,-0.09 0.16,-0.17 0.25,-0.26c0.65,-0.67 1.3,-1.34 1.94,-2c0.01,-0.01 0.03,-0.03 0.04,-0.04c0.63,-0.65 1.24,-1.3 1.85,-1.94c0.15,-0.15 0.29,-0.31 0.44,-0.46c0.61,-0.64 1.2,-1.27 1.78,-1.89c0.06,-0.06 0.12,-0.13 0.18,-0.19c0.54,-0.58 1.06,-1.14 1.59,-1.71c0.07,-0.08 0.15,-0.16 0.22,-0.24c0.05,-0.06 0.1,-0.11 0.15,-0.17c0.6,-0.65 1.18,-1.29 1.75,-1.92c0.1,-0.11 0.21,-0.23 0.31,-0.34c0.57,-0.63 1.13,-1.25 1.67,-1.85c0.02,-0.03 0.05,-0.05 0.07,-0.08c0.56,-0.62 1.1,-1.23 1.62,-1.82c0.1,-0.12 0.21,-0.23 0.31,-0.35c0.51,-0.58 1,-1.14 1.48,-1.69c0.03,-0.04 0.06,-0.08 0.09,-0.11c0.05,-0.06 0.09,-0.11 0.14,-0.16c0.55,-0.63 1.08,-1.24 1.59,-1.84c0.05,-0.06 0.1,-0.12 0.15,-0.18c0.53,-0.61 1.04,-1.21 1.53,-1.79c0.01,-0.01 0.02,-0.02 0.03,-0.03c0.49,-0.58 0.97,-1.14 1.42,-1.68c0.03,-0.03 0.06,-0.07 0.08,-0.1c0.43,-0.52 0.84,-1.01 1.24,-1.49c0.03,-0.03 0.06,-0.07 0.09,-0.11c0.03,-0.03 0.05,-0.06 0.08,-0.09c0.16,-0.2 0.32,-0.39 0.48,-0.58c0.08,-0.1 0.16,-0.2 0.24,-0.29c0.22,-0.27 0.44,-0.54 0.65,-0.79c0.06,-0.07 0.11,-0.14 0.17,-0.21c0.15,-0.18 0.3,-0.37 0.44,-0.54c0.08,-0.1 0.15,-0.19 0.23,-0.29c0.11,-0.14 0.23,-0.28 0.34,-0.42c0.07,-0.09 0.14,-0.17 0.21,-0.26c0.1,-0.13 0.2,-0.26 0.3,-0.38c0.07,-0.08 0.13,-0.16 0.19,-0.24c0.09,-0.12 0.19,-0.24 0.28,-0.35c0.05,-0.07 0.11,-0.13 0.16,-0.2c0.09,-0.11 0.17,-0.22 0.25,-0.32c0.04,-0.05 0.09,-0.11 0.13,-0.16c0.09,-0.11 0.17,-0.21 0.24,-0.31c0.02,-0.03 0.05,-0.06 0.07,-0.09c0.01,-0.01 0.01,-0.01 0.02,-0.02c0.07,-0.09 0.13,-0.16 0.19,-0.24c0.02,-0.03 0.05,-0.06 0.07,-0.09c0.06,-0.08 0.11,-0.15 0.17,-0.21c0.02,-0.02 0.03,-0.04 0.05,-0.06c0.04,-0.06 0.08,-0.1 0.11,-0.14c0.07,-0.09 0.13,-0.16 0.17,-0.21l-20.26,-11.85c-0.04,0.05 -0.1,0.13 -0.17,0.21c-0.03,0.04 -0.07,0.09 -0.11,0.14c-0.03,0.04 -0.07,0.09 -0.1,0.13c-0.03,0.04 -0.06,0.08 -0.1,0.13c-0.04,0.05 -0.08,0.11 -0.12,0.16c-0.05,0.06 -0.09,0.12 -0.15,0.18c-0.03,0.04 -0.06,0.08 -0.09,0.12c-0.07,0.1 -0.15,0.19 -0.24,0.3c-0.04,0.05 -0.09,0.11 -0.13,0.17c-0.08,0.1 -0.16,0.2 -0.25,0.31c-0.06,0.07 -0.11,0.15 -0.17,0.22c-0.08,0.1 -0.17,0.21 -0.26,0.32c-0.07,0.08 -0.13,0.17 -0.2,0.25c-0.1,0.12 -0.2,0.25 -0.31,0.38c-0.06,0.08 -0.13,0.16 -0.19,0.24c-0.12,0.15 -0.25,0.31 -0.38,0.46c-0.06,0.08 -0.12,0.15 -0.19,0.24c-0.18,0.23 -0.37,0.46 -0.57,0.7c-0.01,0.01 -0.02,0.03 -0.03,0.04c-0.21,0.26 -0.44,0.54 -0.67,0.82c-0.06,0.07 -0.12,0.14 -0.18,0.21c-0.17,0.21 -0.35,0.42 -0.53,0.64c-0.05,0.07 -0.11,0.13 -0.16,0.2c-0.4,0.48 -0.81,0.97 -1.24,1.49c-0.03,0.03 -0.06,0.07 -0.08,0.1c-0.45,0.54 -0.92,1.1 -1.42,1.68c-0.01,0.01 -0.02,0.02 -0.03,0.04c-0.49,0.58 -1,1.18 -1.53,1.8c-0.05,0.06 -0.09,0.11 -0.14,0.17c-0.51,0.59 -1.05,1.21 -1.59,1.84c-0.08,0.09 -0.16,0.18 -0.24,0.27c-0.48,0.55 -0.98,1.12 -1.48,1.69c-0.1,0.11 -0.2,0.22 -0.3,0.33c-0.53,0.6 -1.07,1.21 -1.63,1.83c-0.02,0.03 -0.05,0.05 -0.07,0.08c-0.54,0.61 -1.1,1.23 -1.67,1.85c-0.1,0.11 -0.2,0.22 -0.3,0.34c-0.57,0.63 -1.16,1.27 -1.75,1.91c-0.13,0.14 -0.25,0.28 -0.38,0.41c-0.52,0.56 -1.05,1.13 -1.59,1.71c-0.06,0.06 -0.12,0.12 -0.18,0.19c-0.59,0.63 -1.18,1.26 -1.79,1.9c-0.14,0.15 -0.28,0.3 -0.42,0.44c-0.61,0.64 -1.23,1.29 -1.86,1.95c-0.01,0.01 -0.03,0.03 -0.04,0.04c-0.63,0.66 -1.29,1.33 -1.94,2.01c-0.16,0.16 -0.32,0.33 -0.48,0.49c-0.58,0.6 -1.17,1.19 -1.77,1.8c-0.04,0.04 -0.08,0.09 -0.13,0.13c-0.64,0.64 -1.28,1.29 -1.94,1.94c-0.17,0.17 -0.35,0.34 -0.52,0.51c-0.54,0.54 -1.09,1.08 -1.64,1.62c-0.14,0.14 -0.28,0.27 -0.42,0.41c-0.67,0.66 -1.35,1.32 -2.03,1.98c-0.17,0.16 -0.35,0.33 -0.52,0.5c-0.49,0.47 -0.98,0.94 -1.48,1.42c-0.21,0.2 -0.42,0.4 -0.63,0.6c-0.55,0.53 -1.11,1.06 -1.68,1.59c-0.12,0.11 -0.25,0.23 -0.37,0.35c-0.68,0.64 -1.37,1.28 -2.06,1.92c-0.19,0.17 -0.37,0.34 -0.56,0.51c-0.53,0.49 -1.06,0.98 -1.6,1.46c-0.18,0.16 -0.35,0.32 -0.53,0.48c-1.39,1.26 -2.81,2.53 -4.26,3.8c0,0 -0.01,0.01 -0.01,0.01c-1.44,1.27 -2.91,2.54 -4.4,3.8c-0.13,0.11 -0.27,0.23 -0.41,0.34c-1.28,1.09 -2.58,2.17 -3.89,3.25c-0.14,0.11 -0.27,0.22 -0.41,0.34c-1.36,1.12 -2.74,2.23 -4.14,3.34c-0.08,0.06 -0.15,0.12 -0.23,0.18c-1.29,1.03 -2.6,2.05 -3.93,3.07c-0.07,0.06 -0.15,0.11 -0.22,0.17c-1.34,1.03 -2.69,2.05 -4.05,3.06c-0.07,0.05 -0.13,0.1 -0.19,0.15c-1.19,0.88 -2.39,1.75 -3.59,2.62c-0.16,0.11 -0.31,0.22 -0.47,0.34c-1.17,0.84 -2.35,1.66 -3.54,2.48c-0.17,0.12 -0.35,0.24 -0.52,0.36c-1.69,1.17 -3.4,2.32 -5.13,3.45" />
		<path id="Fill 259" class="shp3" d="M117.2,125.58c-1.27,4.57 -3.9,9.15 -7.2,12.55l0.27,93.87c16.74,-21.95 30.81,-45.49 41.89,-70.17c10.07,-22.43 17.75,-45.91 22.84,-69.83l-57.8,33.58" />
		<path id="Fill 260" class="shp3" d="M109,43.08l0.19,68.77c3.29,-0.43 5.91,1.08 7.2,4.15l59.88,-34.99c4.38,-25.09 4.87,-44.7 4.7,-55.01c-32.36,14.9 -58.77,17.12 -71.97,17.08" />
		<path id="Fill 261" class="shp3" d="M99.81,48c-13.15,15.41 -39.47,43.94 -71.8,66.79c-0.11,10.44 0.49,29.37 4.99,49.21l59.84,-34.9c1.27,-4.56 3.87,-9.12 7.15,-12.51l-0.19,-68.59" />
		<path id="Fill 262" class="shp3" d="M36,173.57c5.19,17.92 12.94,32.41 23.05,43.08c11.13,11.74 25.22,18.89 41.95,21.34l-0.26,-93.84c-3.3,0.44 -5.92,-1.08 -7.21,-4.16l-57.53,33.57" />
	</g>
</svg>